<svg width="24.000000" height="24.000000" viewBox="0 0 24 24" fill="none" xmlns="http://www.w3.org/2000/svg" xmlns:xlink="http://www.w3.org/1999/xlink">
	<desc>
			Created with Pixso.
	</desc>
	<defs>
		<clipPath id="clip402_9527">
			<rect id="Icon/instagram" width="14.000000" height="14.000000" transform="translate(5.000000 5.000000)" fill="white" fill-opacity="0"/>
		</clipPath>
		<clipPath id="clip33_33">
			<rect id="Icon/instagram" width="24.000000" height="24.000000" fill="white" fill-opacity="0"/>
		</clipPath>
	</defs>
	<rect id="Icon/instagram" width="24.000000" height="24.000000" fill="#FFFFFF" fill-opacity="0"/>
	<g clip-path="url(#clip33_33)">
		<path id="Ellipse 1" d="M24 12C24 18.62 18.62 24 12 24C5.37 24 0 18.62 0 12C0 5.37 5.37 0 12 0C18.62 0 24 5.37 24 12Z" fill="#C22037" fill-opacity="1.000000" fill-rule="nonzero"/>
		<rect id="Icon/instagram" width="14.000000" height="14.000000" transform="translate(5.000000 5.000000)" fill="#FFFFFF" fill-opacity="0"/>
		<g clip-path="url(#clip402_9527)">
			<path id="Vector" d="M5.41 9.08C5.41 7.05 7.05 5.41 9.08 5.41L14.91 5.41C16.94 5.41 18.58 7.05 18.58 9.08L18.58 14.91C18.58 16.94 16.94 18.58 14.91 18.58L9.08 18.58C7.05 18.58 5.41 16.94 5.41 14.91L5.41 9.08ZM9.08 6.91C7.88 6.91 6.91 7.88 6.91 9.08L6.91 14.91C6.91 16.11 7.88 17.08 9.08 17.08L14.91 17.08C16.11 17.08 17.08 16.11 17.08 14.91L17.08 9.08C17.08 7.88 16.11 6.91 14.91 6.91L9.08 6.91ZM15.2 8.04C14.79 8.04 14.45 8.37 14.45 8.79C14.45 9.2 14.79 9.54 15.2 9.54L15.21 9.54C15.62 9.54 15.96 9.2 15.96 8.79C15.96 8.37 15.62 8.04 15.21 8.04L15.2 8.04ZM10.6 9.23C11.18 8.93 11.83 8.82 12.47 8.92C13.13 9.02 13.73 9.32 14.2 9.79C14.67 10.26 14.97 10.86 15.07 11.52C15.17 12.16 15.06 12.81 14.76 13.39C14.46 13.97 13.99 14.43 13.41 14.72C12.83 15.02 12.17 15.12 11.53 15.01C10.89 14.91 10.3 14.61 9.84 14.15C9.38 13.69 9.08 13.1 8.98 12.46C8.87 11.82 8.97 11.16 9.27 10.58C9.56 10 10.03 9.53 10.6 9.23ZM12.25 10.4C11.92 10.35 11.59 10.41 11.29 10.56C11 10.72 10.76 10.96 10.61 11.26C10.46 11.56 10.4 11.89 10.46 12.22C10.51 12.55 10.67 12.85 10.9 13.09C11.14 13.32 11.44 13.48 11.77 13.53C12.1 13.59 12.43 13.53 12.73 13.38C13.03 13.23 13.27 12.99 13.43 12.7C13.58 12.4 13.64 12.07 13.59 11.74C13.54 11.4 13.38 11.09 13.14 10.85C12.9 10.61 12.59 10.45 12.25 10.4Z" fill="#FFFFFF" fill-opacity="1.000000" fill-rule="evenodd"/>
		</g>
	</g>
</svg>
