<svg width="24.000000" height="24.000000" viewBox="0 0 24 24" fill="none" xmlns="http://www.w3.org/2000/svg" xmlns:xlink="http://www.w3.org/1999/xlink">
	<desc>
			Created with Pixso.
	</desc>
	<defs>
		<clipPath id="clip33_40">
			<rect id="Icon/twitter" width="24.000000" height="24.000000" fill="white" fill-opacity="0"/>
		</clipPath>
	</defs>
	<rect id="Icon/twitter" width="24.000000" height="24.000000" fill="#FFFFFF" fill-opacity="0"/>
	<g clip-path="url(#clip33_40)">
		<path id="Ellipse 1" d="M24 12C24 18.62 18.62 24 12 24C5.37 24 0 18.62 0 12C0 5.37 5.37 0 12 0C18.62 0 24 5.37 24 12Z" fill="#C22037" fill-opacity="1.000000" fill-rule="nonzero"/>
		<path id="Vector" d="M18 8.17C17.54 8.36 17.07 8.49 16.58 8.55C17.09 8.24 17.48 7.76 17.66 7.19C17.18 7.48 16.65 7.68 16.1 7.79C15.73 7.39 15.24 7.12 14.7 7.03C14.16 6.94 13.61 7.03 13.13 7.29C12.65 7.54 12.27 7.95 12.05 8.45C11.82 8.94 11.77 9.5 11.9 10.03C10.92 9.98 9.96 9.73 9.09 9.28C8.22 8.84 7.45 8.22 6.83 7.46C6.61 7.84 6.5 8.26 6.5 8.7C6.5 9.1 6.6 9.5 6.79 9.86C6.98 10.22 7.25 10.52 7.59 10.75C7.2 10.73 6.82 10.63 6.48 10.44L6.48 10.47C6.48 11.04 6.68 11.58 7.04 12.02C7.4 12.46 7.9 12.76 8.45 12.87C8.24 12.93 8.02 12.97 7.79 12.97C7.64 12.97 7.49 12.96 7.33 12.93C7.49 13.42 7.8 13.84 8.21 14.15C8.62 14.45 9.12 14.62 9.63 14.63C8.77 15.31 7.7 15.69 6.59 15.69C6.39 15.69 6.19 15.68 6 15.65C7.12 16.38 8.43 16.77 9.77 16.76C10.69 16.77 11.61 16.6 12.46 16.25C13.32 15.9 14.1 15.39 14.75 14.73C15.41 14.08 15.92 13.3 16.27 12.45C16.62 11.6 16.8 10.68 16.79 9.76C16.79 9.65 16.79 9.55 16.79 9.44C17.27 9.09 17.67 8.66 18 8.17Z" fill="#FFFFFF" fill-opacity="1.000000" fill-rule="nonzero"/>
	</g>
</svg>
