<svg width="22.000000" height="21.000000" viewBox="0 0 22 21" fill="none" xmlns="http://www.w3.org/2000/svg" xmlns:xlink="http://www.w3.org/1999/xlink">
	<desc>
			Created with Pixso.
	</desc>
	<defs/>
	<rect id="Component 101" width="22.000000" height="21.000000" fill="#FFFFFF" fill-opacity="0"/>
	<rect id="Rectangle 317" width="22.000000" height="21.000000" fill="#C4C4C4" fill-opacity="0"/>
	<path id="Vector (Stroke)" d="M7.1 13.56C6.47 13.56 5.95 14.05 5.95 14.65C5.95 15.26 6.47 15.75 7.1 15.75C7.73 15.75 8.25 15.26 8.25 14.65C8.25 14.05 7.73 13.56 7.1 13.56ZM4.58 14.65C4.58 13.32 5.71 12.25 7.1 12.25C8.49 12.25 9.62 13.32 9.62 14.65C9.62 15.98 8.49 17.06 7.1 17.06C5.71 17.06 4.58 15.98 4.58 14.65Z" fill="#252525" fill-opacity="1.000000" fill-rule="evenodd"/>
	<path id="Vector (Stroke)" d="M16.27 13.56C15.63 13.56 15.12 14.05 15.12 14.65C15.12 15.26 15.63 15.75 16.27 15.75C16.9 15.75 17.41 15.26 17.41 14.65C17.41 14.05 16.9 13.56 16.27 13.56ZM13.75 14.65C13.75 13.32 14.87 12.25 16.27 12.25C17.66 12.25 18.79 13.32 18.79 14.65C18.79 15.98 17.66 17.06 16.27 17.06C14.87 17.06 13.75 15.98 13.75 14.65Z" fill="#252525" fill-opacity="1.000000" fill-rule="evenodd"/>
	<path id="Vector (Stroke)" d="M1.83 4.15C1.83 3.79 2.14 3.5 2.52 3.5L12.6 3.5C12.98 3.5 13.29 3.79 13.29 4.15C13.29 4.23 13.27 4.3 13.25 4.37L17.18 4.37C17.42 4.37 17.65 4.49 17.77 4.69L20.52 9.06C20.59 9.17 20.62 9.28 20.62 9.4L20.62 14.65C20.62 15.01 20.31 15.31 19.93 15.31L18.1 15.31C17.72 15.31 17.41 15.01 17.41 14.65C17.41 14.29 17.72 14 18.1 14L19.25 14L19.25 10.06L13.29 10.06L13.29 14L14.43 14C14.81 14 15.12 14.29 15.12 14.65C15.12 15.01 14.81 15.31 14.43 15.31L8.93 15.31C8.55 15.31 8.25 15.01 8.25 14.65C8.25 14.29 8.55 14 8.93 14L11.91 14L11.91 5.03C11.91 4.95 11.92 4.88 11.95 4.81L2.52 4.81C2.14 4.81 1.83 4.51 1.83 4.15ZM13.29 8.75L18.72 8.75L16.79 5.68L13.29 5.68L13.29 8.75ZM3.43 10.5C3.81 10.5 4.12 10.79 4.12 11.15L4.12 14L5.27 14C5.65 14 5.95 14.29 5.95 14.65C5.95 15.01 5.65 15.31 5.27 15.31L3.43 15.31C3.05 15.31 2.75 15.01 2.75 14.65L2.75 11.15C2.75 10.79 3.05 10.5 3.43 10.5Z" fill="#252525" fill-opacity="1.000000" fill-rule="evenodd"/>
	<path id="Vector (Stroke)" d="M2.75 7.65C2.75 7.29 3.05 7 3.43 7L7.1 7C7.48 7 7.79 7.29 7.79 7.65C7.79 8.01 7.48 8.31 7.1 8.31L3.43 8.31C3.05 8.31 2.75 8.01 2.75 7.65Z" fill="#252525" fill-opacity="1.000000" fill-rule="evenodd"/>
</svg>
