<svg width="24.000000" height="24.000000" viewBox="0 0 24 24" fill="none" xmlns="http://www.w3.org/2000/svg" xmlns:xlink="http://www.w3.org/1999/xlink">
	<desc>
			Created with Pixso.
	</desc>
	<defs>
		<clipPath id="clip89_268">
			<rect id="Icon/search" width="24.000000" height="24.000000" fill="white" fill-opacity="0"/>
		</clipPath>
	</defs>
	<rect id="Icon/search" width="24.000000" height="24.000000" fill="#FFFFFF" fill-opacity="0"/>
	<g clip-path="url(#clip89_268)">
		<path id="Vector" d="M11 2C6.02 2 2 6.02 2 11C2 15.97 6.02 20 11 20C13.12 20 15.07 19.26 16.61 18.03L20.29 21.7C20.68 22.09 21.31 22.09 21.7 21.7C22.09 21.31 22.09 20.68 21.7 20.29L18.03 16.61C19.26 15.07 20 13.12 20 11C20 6.02 15.97 2 11 2ZM16.04 15.85C17.25 14.59 18 12.88 18 11C18 7.13 14.86 4 11 4C7.13 4 4 7.13 4 11C4 14.86 7.13 18 11 18C12.88 18 14.59 17.25 15.85 16.04C15.88 16 15.91 15.97 15.94 15.94C15.97 15.91 16 15.88 16.04 15.85Z" fill="#252525" fill-opacity="1.000000" fill-rule="evenodd"/>
	</g>
</svg>
