<svg width="16.000000" height="16.000000" viewBox="0 0 16 16" fill="none" xmlns="http://www.w3.org/2000/svg" xmlns:xlink="http://www.w3.org/1999/xlink">
	<desc>
			Created with Pixso.
	</desc>
	<defs>
		<clipPath id="clip192_25494">
			<rect id="Icon (L)" width="16.000000" height="16.000000" fill="white" fill-opacity="0"/>
		</clipPath>
	</defs>
	<rect id="Icon (L)" width="16.000000" height="16.000000" fill="#FFFFFF" fill-opacity="0"/>
	<g clip-path="url(#clip192_25494)">
		<path id="Vector" d="M11.33 2.66L11.33 3.33L14 3.33C14.36 3.33 14.66 3.63 14.66 4C14.66 4.36 14.36 4.66 14 4.66L13.33 4.66L13.33 13.33C13.33 13.86 13.12 14.37 12.74 14.74C12.37 15.12 11.86 15.33 11.33 15.33L4.66 15.33C4.13 15.33 3.62 15.12 3.25 14.74C2.87 14.37 2.66 13.86 2.66 13.33L2.66 4.66L2 4.66C1.63 4.66 1.33 4.36 1.33 4C1.33 3.63 1.63 3.33 2 3.33L4.66 3.33L4.66 2.66C4.66 2.13 4.87 1.62 5.25 1.25C5.62 0.87 6.13 0.66 6.66 0.66L9.33 0.66C9.86 0.66 10.37 0.87 10.74 1.25C11.12 1.62 11.33 2.13 11.33 2.66ZM6 3.33L6 2.66C6 2.49 6.07 2.32 6.19 2.19C6.32 2.07 6.48 2 6.66 2L9.33 2C9.5 2 9.67 2.07 9.8 2.19C9.92 2.32 10 2.49 10 2.66L10 3.33L6 3.33ZM4 4.66L4 13.33C4 13.51 4.07 13.67 4.19 13.8C4.32 13.92 4.48 14 4.66 14L11.33 14C11.5 14 11.67 13.92 11.8 13.8C11.92 13.67 12 13.51 12 13.33L12 4.66L4 4.66Z" fill="#252525" fill-opacity="1.000000" fill-rule="evenodd"/>
	</g>
</svg>
