<svg width="48.000000" height="48.000000" viewBox="0 0 48 48" fill="none" xmlns="http://www.w3.org/2000/svg" xmlns:xlink="http://www.w3.org/1999/xlink">
	<desc>
			Created with Pixso.
	</desc>
	<defs>
		<clipPath id="clip402_7776">
			<rect id="Icon (L)" width="24.000000" height="24.000000" transform="translate(12.000000 12.000000)" fill="white" fill-opacity="0"/>
		</clipPath>
	</defs>
	<rect id="Small" width="48.000000" height="48.000000" fill="#C22037" fill-opacity="1.000000"/>
	<rect id="Icon (L)" width="24.000000" height="24.000000" transform="translate(12.000000 12.000000)" fill="#FFFFFF" fill-opacity="0"/>
	<g clip-path="url(#clip402_7776)">
		<path id="Vector" d="M19.28 15.68C19.19 15.59 19.12 15.47 19.07 15.35C19.02 15.23 19 15.1 19 14.97C19.01 14.84 19.04 14.71 19.09 14.59C19.15 14.47 19.22 14.36 19.32 14.27C19.41 14.18 19.53 14.11 19.65 14.06C19.77 14.01 19.9 13.99 20.03 14C20.16 14 20.29 14.03 20.41 14.08C20.53 14.14 20.64 14.21 20.73 14.31L29.23 23.31C29.41 23.49 29.5 23.74 29.5 24C29.5 24.25 29.41 24.5 29.23 24.68L20.73 33.68C20.64 33.78 20.53 33.86 20.41 33.91C20.29 33.97 20.16 34 20.03 34.01C19.9 34.01 19.77 33.99 19.64 33.94C19.52 33.9 19.41 33.83 19.31 33.73C19.21 33.64 19.13 33.53 19.08 33.41C19.03 33.29 19 33.16 19 33.03C18.99 32.9 19.02 32.76 19.06 32.64C19.11 32.52 19.19 32.41 19.28 32.31L27.13 24L19.28 15.68Z" fill="#FFFFFF" fill-opacity="1.000000" fill-rule="nonzero"/>
	</g>
</svg>
