<svg width="16.000000" height="16.000000" viewBox="0 0 16 16" fill="none" xmlns="http://www.w3.org/2000/svg" xmlns:xlink="http://www.w3.org/1999/xlink">
	<desc>
			Created with Pixso.
	</desc>
	<defs>
		<clipPath id="clip868_20245">
			<rect id="Icon (L)" width="16.000000" height="16.000000" fill="white" fill-opacity="0"/>
		</clipPath>
	</defs>
	<rect id="Icon (L)" width="16.000000" height="16.000000" fill="#FFFFFF" fill-opacity="0"/>
	<g clip-path="url(#clip868_20245)">
		<path id="Vector (Stroke)" d="M1.42 8C1.5 8.12 1.59 8.28 1.71 8.47C2.02 8.94 2.47 9.58 3.06 10.21C4.26 11.48 5.93 12.66 8 12.66C10.06 12.66 11.73 11.48 12.93 10.21C13.52 9.58 13.97 8.94 14.28 8.47C14.4 8.28 14.5 8.12 14.57 8C14.5 7.87 14.4 7.71 14.28 7.52C13.97 7.05 13.52 6.41 12.93 5.78C11.73 4.51 10.06 3.33 8 3.33C5.93 3.33 4.26 4.51 3.06 5.78C2.47 6.41 2.02 7.05 1.71 7.52C1.59 7.71 1.5 7.87 1.42 8ZM15.33 8C15.92 7.7 15.92 7.7 15.92 7.7L15.92 7.69L15.92 7.69L15.91 7.67C15.91 7.66 15.9 7.65 15.89 7.62C15.86 7.58 15.83 7.52 15.79 7.44C15.7 7.28 15.57 7.06 15.4 6.8C15.06 6.28 14.56 5.58 13.9 4.87C12.59 3.48 10.59 2 8 2C5.4 2 3.4 3.48 2.09 4.87C1.43 5.58 0.93 6.28 0.59 6.8C0.42 7.06 0.29 7.28 0.2 7.44C0.16 7.52 0.13 7.58 0.1 7.62C0.09 7.65 0.08 7.66 0.08 7.67L0.07 7.69L0.07 7.69L0.07 7.7C0.07 7.7 0.07 7.7 0.66 8L0.07 7.7C-0.03 7.88 -0.03 8.11 0.07 8.29L0.66 8C0.07 8.29 0.07 8.29 0.07 8.29L0.07 8.3L0.07 8.3L0.08 8.32C0.08 8.33 0.09 8.34 0.1 8.37C0.13 8.41 0.16 8.47 0.2 8.55C0.29 8.71 0.42 8.93 0.59 9.19C0.93 9.71 1.43 10.41 2.09 11.12C3.4 12.51 5.4 14 8 14C10.59 14 12.59 12.51 13.9 11.12C14.56 10.41 15.06 9.71 15.4 9.19C15.57 8.93 15.7 8.71 15.79 8.55C15.83 8.47 15.86 8.41 15.89 8.37C15.9 8.34 15.91 8.33 15.91 8.32L15.92 8.3L15.92 8.3L15.92 8.29C15.92 8.29 15.92 8.29 15.33 8ZM15.33 8L15.92 8.29C16.02 8.11 16.02 7.88 15.92 7.7L15.33 8Z" fill="#252525" fill-opacity="1.000000" fill-rule="evenodd"/>
		<path id="Vector (Stroke)" d="M8 6.66C7.26 6.66 6.66 7.26 6.66 8C6.66 8.73 7.26 9.33 8 9.33C8.73 9.33 9.33 8.73 9.33 8C9.33 7.26 8.73 6.66 8 6.66ZM5.33 8C5.33 6.52 6.52 5.33 8 5.33C9.47 5.33 10.66 6.52 10.66 8C10.66 9.47 9.47 10.66 8 10.66C6.52 10.66 5.33 9.47 5.33 8Z" fill="#252525" fill-opacity="1.000000" fill-rule="evenodd"/>
	</g>
</svg>
