<svg width="24.000000" height="25.000000" viewBox="0 0 24 25" fill="none" xmlns="http://www.w3.org/2000/svg" xmlns:xlink="http://www.w3.org/1999/xlink">
	<desc>
			Created with Pixso.
	</desc>
	<defs>
		<clipPath id="clip51_24191">
			<rect id="Icon/viber" width="24.000000" height="24.234146" fill="white" fill-opacity="0"/>
		</clipPath>
	</defs>
	<rect id="Icon/viber" width="24.000000" height="24.234146" fill="#FFFFFF" fill-opacity="0"/>
	<g clip-path="url(#clip51_24191)">
		<path id="Ellipse 1" d="M24 12.11C24 18.8 18.62 24.23 12 24.23C5.37 24.23 0 18.8 0 12.11C0 5.42 5.37 0 12 0C18.62 0 24 5.42 24 12.11Z" fill="#705699" fill-opacity="1.000000" fill-rule="nonzero"/>
		<path id="Vector" d="M11.28 5.04C10.16 5.06 7.75 5.25 6.4 6.5C5.39 7.51 5.04 8.99 5 10.83C4.97 12.66 4.92 16.1 8.2 17.04L8.21 17.04L8.2 18.46C8.2 18.46 8.18 19.04 8.56 19.15C9.01 19.29 9.28 18.86 9.71 18.39C9.95 18.13 10.28 17.75 10.53 17.45C12.77 17.65 14.5 17.21 14.7 17.15C15.15 17 17.72 16.66 18.14 13.22C18.57 9.68 17.93 7.43 16.77 6.42C16.42 6.1 15.02 5.07 11.89 5.06C11.89 5.06 11.66 5.04 11.28 5.05L11.28 5.04ZM11.32 6.04C11.64 6.04 11.83 6.05 11.83 6.05C14.48 6.06 15.75 6.87 16.04 7.14C17.02 7.98 17.52 10.01 17.16 12.97L17.16 12.97C16.8 15.84 14.72 16.02 14.34 16.15C14.17 16.2 12.66 16.58 10.75 16.46C10.75 16.46 9.33 18.19 8.88 18.64C8.81 18.71 8.73 18.74 8.68 18.72C8.6 18.7 8.58 18.61 8.58 18.48L8.59 16.11C5.82 15.33 5.98 12.41 6.01 10.87C6.04 9.34 6.33 8.08 7.17 7.24C8.32 6.19 10.37 6.05 11.32 6.04L11.32 6.04ZM11.54 7.57C11.5 7.58 11.45 7.6 11.42 7.63C11.39 7.66 11.37 7.71 11.37 7.75C11.37 7.8 11.39 7.84 11.42 7.87C11.45 7.91 11.49 7.93 11.54 7.93C12.49 7.94 13.25 8.25 13.89 8.87C14.51 9.49 14.83 10.32 14.84 11.42C14.84 11.52 14.92 11.6 15.02 11.6C15.07 11.6 15.11 11.58 15.14 11.54C15.17 11.51 15.19 11.47 15.19 11.42C15.18 10.25 14.83 9.3 14.13 8.61C13.44 7.93 12.56 7.58 11.54 7.57L11.54 7.57ZM9.23 7.98C9.1 7.97 8.98 7.99 8.87 8.05L8.86 8.05C8.61 8.2 8.39 8.38 8.2 8.6C8.19 8.6 8.19 8.6 8.19 8.61C8.04 8.8 7.95 8.98 7.92 9.16C7.92 9.19 7.92 9.22 7.92 9.25C7.92 9.33 7.93 9.41 7.96 9.48L7.96 9.49C8.04 9.77 8.24 10.24 8.67 11.02C8.91 11.48 9.19 11.91 9.51 12.31C9.67 12.51 9.84 12.71 10.02 12.89L10.09 12.97C10.28 13.15 10.47 13.32 10.67 13.48C11.07 13.8 11.5 14.09 11.94 14.33C12.72 14.76 13.18 14.96 13.46 15.04L13.47 15.05C13.57 15.08 13.68 15.1 13.78 15.08C13.97 15.06 14.15 14.97 14.34 14.81C14.34 14.81 14.34 14.81 14.34 14.81C14.56 14.62 14.74 14.39 14.88 14.13L14.89 14.13C15.02 13.87 14.97 13.63 14.78 13.47C14.78 13.47 14.37 13.13 14.18 12.98C13.97 12.83 13.75 12.69 13.53 12.56C13.23 12.39 12.92 12.5 12.8 12.66L12.54 13C12.4 13.16 12.16 13.14 12.16 13.14C10.33 12.67 9.85 10.81 9.85 10.81C9.85 10.81 9.83 10.56 9.99 10.42L10.32 10.16C10.48 10.03 10.59 9.73 10.42 9.43C10.29 9.2 10.16 8.98 10.01 8.77C9.85 8.56 9.69 8.36 9.52 8.16C9.45 8.07 9.34 8 9.23 7.98L9.23 7.98ZM11.85 8.5C11.8 8.5 11.76 8.52 11.72 8.55C11.69 8.58 11.67 8.63 11.67 8.67C11.66 8.72 11.68 8.77 11.71 8.8C11.75 8.84 11.79 8.86 11.84 8.86C12.51 8.91 13.01 9.13 13.38 9.54C13.75 9.94 13.92 10.43 13.91 11.05C13.91 11.09 13.93 11.14 13.96 11.17C14 11.2 14.04 11.22 14.08 11.22C14.13 11.22 14.17 11.2 14.21 11.17C14.24 11.14 14.26 11.1 14.26 11.06C14.28 10.37 14.07 9.77 13.64 9.29C13.21 8.82 12.61 8.56 11.86 8.5L11.85 8.5L11.85 8.5ZM12.12 9.46C12.07 9.46 12.03 9.48 12 9.51C11.97 9.54 11.95 9.58 11.94 9.63C11.94 9.73 12.01 9.81 12.11 9.82C12.42 9.84 12.62 9.92 12.76 10.07C12.9 10.21 12.99 10.43 13 10.75C13.01 10.8 13.03 10.84 13.07 10.87C13.1 10.9 13.14 10.91 13.19 10.91C13.23 10.91 13.27 10.89 13.31 10.85C13.34 10.82 13.35 10.78 13.36 10.74C13.34 10.36 13.23 10.04 13.02 9.82C12.8 9.6 12.5 9.48 12.13 9.46L12.12 9.46L12.12 9.46Z" fill="#FFFFFF" fill-opacity="1.000000" fill-rule="nonzero"/>
	</g>
</svg>
