<svg width="12.000000" height="9.000000" viewBox="0 0 12 9" fill="none" xmlns="http://www.w3.org/2000/svg" xmlns:xlink="http://www.w3.org/1999/xlink">
	<desc>
			Created with Pixso.
	</desc>
	<defs/>
	<path id="Vector" d="M9.45 -0.55C9.66 -0.76 9.94 -0.88 10.24 -0.88C10.53 -0.88 10.82 -0.76 11.03 -0.55C11.24 -0.35 11.36 -0.07 11.37 0.23C11.37 0.53 11.26 0.81 11.06 1.03L5.07 8.51C4.97 8.62 4.84 8.71 4.7 8.77C4.57 8.83 4.42 8.87 4.26 8.87C4.11 8.87 3.96 8.84 3.82 8.79C3.68 8.73 3.56 8.65 3.45 8.54L-0.52 4.57C-0.63 4.47 -0.72 4.34 -0.78 4.21C-0.84 4.07 -0.87 3.92 -0.88 3.77C-0.88 3.62 -0.85 3.47 -0.8 3.33C-0.74 3.19 -0.65 3.06 -0.55 2.95C-0.44 2.85 -0.31 2.76 -0.17 2.7C-0.03 2.65 0.12 2.62 0.27 2.62C0.42 2.63 0.57 2.66 0.71 2.72C0.84 2.78 0.97 2.87 1.07 2.98L4.21 6.12L9.42 -0.52C9.43 -0.53 9.44 -0.54 9.45 -0.55L9.45 -0.55Z" fill="#C22037" fill-opacity="1.000000" fill-rule="nonzero"/>
</svg>
