<svg width="48.000000" height="48.000000" viewBox="0 0 48 48" fill="none" xmlns="http://www.w3.org/2000/svg" xmlns:xlink="http://www.w3.org/1999/xlink">
	<desc>
			Created with Pixso.
	</desc>
	<defs>
		<clipPath id="clip281_9679">
			<rect id="Icon/smiley-sad" width="24.000000" height="24.000000" transform="translate(12.000000 12.000000)" fill="white" fill-opacity="0"/>
		</clipPath>
	</defs>
	<rect id="big icon" width="48.000000" height="48.000000" fill="#FFFFFF" fill-opacity="0"/>
	<circle id="Ellipse 9" cx="24.000000" cy="24.000000" r="24.000000" fill="#C22037" fill-opacity="1.000000"/>
	<rect id="Icon/smiley-sad" width="24.000000" height="24.000000" transform="translate(12.000000 12.000000)" fill="#FFFFFF" fill-opacity="0"/>
	<g clip-path="url(#clip281_9679)">
		<path id="Vector" d="M19.5 22.12C19.5 21.9 19.56 21.68 19.68 21.5C19.81 21.31 19.98 21.17 20.19 21.08C20.39 21 20.62 20.97 20.84 21.02C21.06 21.06 21.26 21.17 21.42 21.32C21.57 21.48 21.68 21.68 21.72 21.9C21.77 22.12 21.74 22.34 21.66 22.55C21.57 22.76 21.43 22.93 21.25 23.06C21.06 23.18 20.84 23.25 20.62 23.25C20.32 23.25 20.04 23.13 19.82 22.92C19.61 22.7 19.5 22.42 19.5 22.12ZM27.37 23.25C27.59 23.25 27.81 23.18 28 23.06C28.18 22.93 28.32 22.76 28.41 22.55C28.49 22.34 28.52 22.12 28.47 21.9C28.43 21.68 28.32 21.48 28.17 21.32C28.01 21.17 27.81 21.06 27.59 21.02C27.37 20.97 27.14 21 26.94 21.08C26.73 21.17 26.56 21.31 26.43 21.5C26.31 21.68 26.25 21.9 26.25 22.12C26.25 22.42 26.36 22.7 26.57 22.92C26.79 23.13 27.07 23.25 27.37 23.25ZM33.75 24C33.75 25.92 33.17 27.81 32.1 29.41C31.03 31.02 29.51 32.26 27.73 33C25.94 33.74 23.98 33.93 22.09 33.56C20.2 33.18 18.46 32.25 17.1 30.89C15.74 29.53 14.81 27.79 14.43 25.9C14.06 24.01 14.25 22.05 14.99 20.26C15.73 18.48 16.98 16.96 18.58 15.89C20.18 14.82 22.07 14.25 24 14.25C26.58 14.25 29.06 15.28 30.89 17.1C32.71 18.93 33.74 21.41 33.75 24ZM32.25 24C32.25 22.36 31.76 20.77 30.85 19.41C29.95 18.05 28.66 17 27.15 16.37C25.64 15.75 23.99 15.59 22.39 15.9C20.79 16.22 19.32 17.01 18.16 18.16C17.01 19.32 16.22 20.79 15.9 22.39C15.59 23.99 15.75 25.64 16.37 27.15C17 28.66 18.06 29.95 19.41 30.85C20.77 31.76 22.36 32.25 24 32.25C26.18 32.24 28.28 31.37 29.83 29.83C31.37 28.28 32.24 26.18 32.25 24ZM27.71 27.03C27.14 26.46 26.44 26.03 25.68 25.77C24.92 25.52 24.11 25.44 23.31 25.54C22.51 25.65 21.75 25.93 21.08 26.38C20.41 26.83 19.85 27.42 19.45 28.12C19.4 28.2 19.37 28.3 19.35 28.4C19.34 28.49 19.35 28.59 19.37 28.69C19.4 28.78 19.44 28.87 19.5 28.95C19.56 29.03 19.64 29.09 19.72 29.14C19.81 29.19 19.9 29.23 20 29.24C20.1 29.25 20.2 29.25 20.29 29.22C20.39 29.19 20.48 29.15 20.55 29.09C20.63 29.03 20.7 28.96 20.75 28.87C21.16 28.16 21.78 27.61 22.54 27.29C23.22 27 23.98 26.92 24.71 27.06C25.45 27.21 26.12 27.57 26.65 28.09C26.88 28.33 27.08 28.59 27.24 28.87C27.34 29.04 27.51 29.17 27.7 29.22C27.89 29.27 28.1 29.24 28.27 29.14C28.44 29.04 28.57 28.88 28.62 28.69C28.67 28.5 28.64 28.29 28.54 28.12C28.31 27.72 28.03 27.36 27.71 27.03Z" fill="#FFFFFF" fill-opacity="1.000000" fill-rule="nonzero"/>
	</g>
</svg>
