<svg width="48.000000" height="48.000000" viewBox="0 0 48 48" fill="none" xmlns="http://www.w3.org/2000/svg" xmlns:xlink="http://www.w3.org/1999/xlink">
	<desc>
			Created with Pixso.
	</desc>
	<defs>
		<clipPath id="clip79_9679">
			<rect id="Icon/mail" width="24.000000" height="24.000000" transform="translate(12.000000 12.000000)" fill="white" fill-opacity="0"/>
		</clipPath>
	</defs>
	<rect id="big icon" width="48.000000" height="48.000000" fill="#FFFFFF" fill-opacity="0"/>
	<circle id="Ellipse 9" cx="24.000000" cy="24.000000" r="24.000000" fill="#C22037" fill-opacity="1.000000"/>
	<rect id="Icon/mail" width="24.000000" height="24.000000" transform="translate(12.000000 12.000000)" fill="#FFFFFF" fill-opacity="0"/>
	<g clip-path="url(#clip79_9679)">
		<path id="Vector (Stroke)" d="M16 17C15.45 17 15 17.45 15 18L15 30C15 30.54 15.45 31 16 31L32 31C32.54 31 33 30.54 33 30L33 18C33 17.45 32.54 17 32 17L16 17ZM13 18C13 16.34 14.34 15 16 15L32 15C33.65 15 35 16.34 35 18L35 30C35 31.65 33.65 33 32 33L16 33C14.34 33 13 31.65 13 30L13 18Z" fill="#FFFFFF" fill-opacity="1.000000" fill-rule="evenodd"/>
		<path id="Vector (Stroke)" d="M13.18 17.42C13.49 16.97 14.12 16.86 14.57 17.18L24 23.77L33.42 17.18C33.87 16.86 34.5 16.97 34.81 17.42C35.13 17.87 35.02 18.5 34.57 18.81L24.57 25.81C24.22 26.06 23.77 26.06 23.42 25.81L13.42 18.81C12.97 18.5 12.86 17.87 13.18 17.42Z" fill="#FFFFFF" fill-opacity="1.000000" fill-rule="evenodd"/>
	</g>
</svg>
