<svg width="17.000000" height="17.000000" viewBox="0 0 17 17" fill="none" xmlns="http://www.w3.org/2000/svg" xmlns:xlink="http://www.w3.org/1999/xlink">
	<desc>
			Created with Pixso.
	</desc>
	<defs>
		<clipPath id="clip868_20241">
			<rect id="Icon (L)" width="17.000000" height="17.000000" fill="white" fill-opacity="0"/>
		</clipPath>
	</defs>
	<rect id="Icon (L)" width="17.000000" height="17.000000" fill="#FFFFFF" fill-opacity="0"/>
	<g clip-path="url(#clip868_20241)">
		<path id="Vector" d="M7.96 0C6.59 0 5.24 0.35 4.04 1.03C2.85 1.7 1.85 2.68 1.14 3.85C0.43 5.03 0.04 6.37 0 7.74C-0.04 9.12 0.28 10.48 0.92 11.69L0.32 13.78C0.25 14.03 0.25 14.3 0.31 14.56C0.38 14.81 0.51 15.04 0.7 15.23C0.88 15.42 1.12 15.55 1.37 15.61C1.62 15.68 1.89 15.68 2.15 15.61L4.24 15.01C5.31 15.57 6.49 15.89 7.7 15.93C8.91 15.97 10.11 15.73 11.22 15.24C12.32 14.74 13.3 14.01 14.08 13.08C14.85 12.15 15.41 11.06 15.7 9.88C15.99 8.71 16.01 7.48 15.76 6.3C15.5 5.12 14.99 4.01 14.24 3.05C13.5 2.1 12.54 1.33 11.46 0.8C10.37 0.27 9.17 0 7.96 0ZM7.96 14.16C6.85 14.16 5.76 13.86 4.8 13.29C4.7 13.23 4.58 13.19 4.46 13.18C4.34 13.16 4.22 13.17 4.11 13.2L2.17 13.76L2.72 11.82C2.76 11.71 2.76 11.58 2.75 11.46C2.73 11.34 2.69 11.23 2.63 11.13C1.93 9.95 1.64 8.58 1.81 7.22C1.97 5.86 2.58 4.6 3.54 3.62C4.5 2.64 5.75 2.01 7.11 1.82C8.46 1.63 9.84 1.9 11.03 2.58C12.22 3.25 13.15 4.3 13.68 5.56C14.21 6.83 14.31 8.23 13.96 9.55C13.61 10.87 12.83 12.04 11.74 12.87C10.66 13.71 9.33 14.16 7.96 14.16ZM7.08 7.96C7.08 8.2 7.01 8.42 6.88 8.62C6.75 8.81 6.57 8.96 6.35 9.05C6.13 9.14 5.9 9.17 5.67 9.12C5.44 9.08 5.23 8.96 5.06 8.8C4.9 8.63 4.79 8.42 4.74 8.19C4.69 7.96 4.72 7.73 4.81 7.51C4.9 7.3 5.05 7.11 5.24 6.98C5.44 6.85 5.66 6.78 5.9 6.78C6.21 6.78 6.51 6.91 6.73 7.13C6.95 7.35 7.08 7.65 7.08 7.96ZM11.21 7.96C11.21 8.2 11.14 8.42 11.01 8.62C10.88 8.81 10.7 8.96 10.48 9.05C10.27 9.14 10.03 9.17 9.8 9.12C9.57 9.08 9.36 8.96 9.2 8.8C9.03 8.63 8.92 8.42 8.87 8.19C8.83 7.96 8.85 7.73 8.94 7.51C9.03 7.3 9.18 7.11 9.37 6.98C9.57 6.85 9.8 6.78 10.03 6.78C10.34 6.78 10.64 6.91 10.86 7.13C11.09 7.35 11.21 7.65 11.21 7.96Z" fill="#252525" fill-opacity="1.000000" fill-rule="nonzero"/>
	</g>
</svg>
