<svg width="24.000000" height="24.000000" viewBox="0 0 24 24" fill="none" xmlns="http://www.w3.org/2000/svg" xmlns:xlink="http://www.w3.org/1999/xlink">
	<desc>
			Created with Pixso.
	</desc>
	<defs>
		<clipPath id="clip89_269">
			<rect id="Icon/user" width="24.000000" height="24.000000" fill="white" fill-opacity="0"/>
		</clipPath>
	</defs>
	<rect id="Icon/user" width="24.000000" height="24.000000" fill="#FFFFFF" fill-opacity="0"/>
	<g clip-path="url(#clip89_269)">
		<path id="Vector (Stroke)" d="M4.46 15.46C5.4 14.52 6.67 14 8 14L16 14C17.32 14 18.59 14.52 19.53 15.46C20.47 16.4 21 17.67 21 19L21 21C21 21.55 20.55 22 20 22C19.44 22 19 21.55 19 21L19 19C19 18.2 18.68 17.44 18.12 16.87C17.55 16.31 16.79 16 16 16L8 16C7.2 16 6.44 16.31 5.87 16.87C5.31 17.44 5 18.2 5 19L5 21C5 21.55 4.55 22 4 22C3.44 22 3 21.55 3 21L3 19C3 17.67 3.52 16.4 4.46 15.46Z" fill="#252525" fill-opacity="1.000000" fill-rule="evenodd"/>
		<path id="Vector (Stroke)" d="M12 4C10.34 4 9 5.34 9 7C9 8.65 10.34 10 12 10C13.65 10 15 8.65 15 7C15 5.34 13.65 4 12 4ZM7 7C7 4.23 9.23 2 12 2C14.76 2 17 4.23 17 7C17 9.76 14.76 12 12 12C9.23 12 7 9.76 7 7Z" fill="#252525" fill-opacity="1.000000" fill-rule="evenodd"/>
	</g>
</svg>
