<svg width="16.000000" height="16.000000" viewBox="0 0 16 16" fill="none" xmlns="http://www.w3.org/2000/svg" xmlns:xlink="http://www.w3.org/1999/xlink">
	<desc>
			Created with Pixso.
	</desc>
	<defs>
		<clipPath id="clip241_18804">
			<rect id="Icon/fire" width="16.000000" height="16.000000" fill="white" fill-opacity="0"/>
		</clipPath>
	</defs>
	<rect id="Icon/fire" width="16.000000" height="16.000000" fill="#FFFFFF" fill-opacity="0"/>
	<g clip-path="url(#clip241_18804)">
		<path id="Vector" d="M5.96 5.79L5.96 5.79L5.95 5.79L5.96 5.79ZM11.96 5.67C11.92 5.63 11.87 5.6 11.82 5.57C11.75 5.53 11.67 5.5 11.59 5.49C11.51 5.48 11.42 5.49 11.34 5.51C11.26 5.53 11.19 5.57 11.13 5.62C11.06 5.68 11.01 5.74 10.98 5.82C10.77 6.22 10.48 6.59 10.13 6.89C10.19 6.59 10.21 6.28 10.21 5.98C10.21 5.05 9.97 4.14 9.5 3.33C9.04 2.53 8.37 1.87 7.56 1.41C7.47 1.36 7.37 1.33 7.27 1.33C7.17 1.33 7.07 1.35 6.98 1.4C6.89 1.45 6.81 1.52 6.76 1.61C6.7 1.69 6.67 1.79 6.66 1.89C6.63 2.46 6.48 3.02 6.22 3.54C5.97 4.05 5.61 4.5 5.17 4.87L5.03 4.98C4.58 5.29 4.17 5.67 3.84 6.11C3.31 6.77 2.95 7.54 2.78 8.36C2.6 9.18 2.63 10.04 2.84 10.85C3.05 11.66 3.45 12.42 4.01 13.05C4.57 13.68 5.26 14.17 6.04 14.49C6.13 14.53 6.23 14.54 6.33 14.53C6.43 14.52 6.52 14.49 6.6 14.43C6.69 14.38 6.75 14.3 6.8 14.22C6.85 14.13 6.87 14.03 6.87 13.93C6.87 13.87 6.86 13.81 6.84 13.74C6.7 13.24 6.67 12.71 6.72 12.19C7.29 13.26 8.21 14.12 9.32 14.61C9.46 14.67 9.61 14.68 9.76 14.63C10.64 14.35 11.43 13.84 12.06 13.17C12.69 12.49 13.13 11.66 13.36 10.77C13.58 9.87 13.56 8.93 13.32 8.04C13.07 7.15 12.61 6.33 11.96 5.67ZM9.6 13.41C9.08 13.14 8.62 12.77 8.24 12.31C7.87 11.85 7.6 11.32 7.45 10.75C7.4 10.56 7.37 10.37 7.34 10.17C7.32 10.05 7.27 9.93 7.18 9.84C7.09 9.75 6.98 9.69 6.86 9.66C6.82 9.66 6.78 9.65 6.74 9.65C6.64 9.65 6.53 9.68 6.44 9.73C6.35 9.79 6.27 9.86 6.22 9.95C5.72 10.82 5.47 11.8 5.49 12.8C5.05 12.46 4.69 12.03 4.41 11.55C4.14 11.06 3.96 10.53 3.9 9.97C3.83 9.42 3.88 8.86 4.03 8.32C4.18 7.79 4.44 7.29 4.79 6.85C5.05 6.51 5.37 6.21 5.73 5.97C5.74 5.96 5.76 5.95 5.77 5.94C5.77 5.94 5.95 5.79 5.96 5.79C6.82 5.06 7.43 4.08 7.7 2.99C8.36 3.6 8.8 4.41 8.95 5.29C9.1 6.17 8.96 7.08 8.54 7.87C8.48 7.98 8.46 8.1 8.47 8.21C8.49 8.33 8.53 8.44 8.61 8.54C8.69 8.63 8.79 8.69 8.9 8.73C9.02 8.76 9.14 8.76 9.25 8.72C10.18 8.44 10.99 7.87 11.58 7.1C11.94 7.63 12.17 8.23 12.26 8.86C12.35 9.49 12.3 10.13 12.11 10.73C11.92 11.34 11.6 11.89 11.16 12.36C10.73 12.82 10.2 13.18 9.6 13.41Z" fill="#C22037" fill-opacity="1.000000" fill-rule="nonzero"/>
	</g>
</svg>
