<svg width="24.000000" height="24.000000" viewBox="0 0 24 24" fill="none" xmlns="http://www.w3.org/2000/svg" xmlns:xlink="http://www.w3.org/1999/xlink">
	<desc>
			Created with Pixso.
	</desc>
	<defs>
		<clipPath id="clip402_7770">
			<rect id="Icon (L)" width="24.000000" height="24.000000" fill="white" fill-opacity="0"/>
		</clipPath>
	</defs>
	<rect id="Icon (L)" width="24.000000" height="24.000000" fill="#FFFFFF" fill-opacity="0"/>
	<g clip-path="url(#clip402_7770)">
		<path id="Vector" d="M2.13 8.43L2.48 9.37L2.13 8.43C1.86 8.54 1.64 8.72 1.48 8.95C1.32 9.19 1.24 9.46 1.24 9.75C1.25 10.03 1.34 10.31 1.51 10.53C1.67 10.75 1.89 10.92 2.15 11.01L9.86 14.13L12.99 21.85C13.08 22.1 13.25 22.32 13.46 22.48C13.69 22.64 13.96 22.74 14.24 22.74C14.52 22.75 14.8 22.67 15.03 22.51C15.27 22.36 15.45 22.13 15.55 21.87L15.56 21.86L22.65 3.11L22.65 3.11C22.75 2.86 22.77 2.59 22.71 2.33C22.66 2.07 22.53 1.84 22.34 1.65C22.15 1.46 21.91 1.33 21.66 1.28C21.4 1.22 21.13 1.24 20.88 1.34L20.88 1.34L2.13 8.43ZM18.02 4.56L4.33 9.74L10.38 12.19L18.02 4.56ZM11.8 13.6L14.25 19.65L19.43 5.97L11.8 13.6Z" fill="#FFFFFF" fill-opacity="1.000000" fill-rule="evenodd"/>
	</g>
</svg>
