<svg width="44.000000" height="43.000000" viewBox="0 0 44 43" fill="none" xmlns="http://www.w3.org/2000/svg" xmlns:xlink="http://www.w3.org/1999/xlink">
	<desc>
			Created with Pixso.
	</desc>
	<defs/>
	<path id="Vector" d="M22 0C9.84 0 0 9.43 0 21.08C0 32.72 9.84 42.16 22 42.16C34.15 42.16 44 32.72 44 21.08C44 9.43 34.15 0 22 0ZM31.53 17.51C31.71 17.32 31.84 17.1 31.92 16.85C32.01 16.61 32.04 16.36 32.02 16.1C32 15.85 31.92 15.6 31.8 15.37C31.68 15.14 31.51 14.94 31.31 14.78C31.1 14.62 30.86 14.49 30.61 14.42C30.35 14.34 30.09 14.32 29.82 14.34C29.56 14.37 29.3 14.45 29.06 14.57C28.83 14.69 28.62 14.86 28.46 15.06L19.86 24.95L15.41 20.68C15.03 20.33 14.53 20.14 14 20.14C13.48 20.15 12.98 20.35 12.61 20.71C12.23 21.06 12.02 21.54 12.02 22.04C12.02 22.55 12.22 23.03 12.58 23.39L18.58 29.14C18.78 29.33 19.01 29.48 19.27 29.57C19.53 29.67 19.81 29.71 20.09 29.7C20.36 29.69 20.63 29.62 20.88 29.5C21.13 29.38 21.35 29.22 21.53 29.01L31.53 17.51Z" fill="#C22037" fill-opacity="1.000000" fill-rule="evenodd"/>
</svg>
