<svg width="24.000000" height="24.000000" viewBox="0 0 24 24" fill="none" xmlns="http://www.w3.org/2000/svg" xmlns:xlink="http://www.w3.org/1999/xlink">
	<desc>
			Created with Pixso.
	</desc>
	<defs>
		<clipPath id="clip402_27937">
			<rect id="fi:refresh-cw" width="14.000000" height="14.000000" transform="translate(5.000000 5.000000)" fill="white" fill-opacity="0"/>
		</clipPath>
		<clipPath id="clip402_27938">
			<rect id="Icon (L)" width="24.000000" height="24.000000" fill="white" fill-opacity="0"/>
		</clipPath>
	</defs>
	<rect id="Icon (L)" width="24.000000" height="24.000000" fill="#FFFFFF" fill-opacity="0"/>
	<g clip-path="url(#clip402_27938)">
		<path id="Ellipse 1" d="M24 12C24 18.62 18.62 24 12 24C5.37 24 0 18.62 0 12C0 5.37 5.37 0 12 0C18.62 0 24 5.37 24 12Z" fill="#C22037" fill-opacity="1.000000" fill-rule="nonzero"/>
		<rect id="fi:refresh-cw" width="14.000000" height="14.000000" transform="translate(5.000000 5.000000)" fill="#FFFFFF" fill-opacity="0"/>
		<g clip-path="url(#clip402_27937)">
			<path id="Vector" d="M10.98 7.51C11.74 7.34 12.52 7.36 13.27 7.58C14.02 7.79 14.7 8.2 15.25 8.74C15.25 8.75 15.25 8.75 15.26 8.76L16.77 10.18L14.91 10.18C14.55 10.18 14.26 10.47 14.26 10.83C14.26 11.19 14.55 11.48 14.91 11.48L18.41 11.48C18.5 11.48 18.59 11.46 18.67 11.42C18.75 11.39 18.82 11.34 18.88 11.28C18.89 11.27 18.9 11.26 18.91 11.25C19 11.14 19.06 10.99 19.06 10.83L19.06 7.33C19.06 6.97 18.77 6.68 18.41 6.68C18.05 6.68 17.76 6.97 17.76 7.33L17.76 9.33L16.16 7.82C15.45 7.12 14.59 6.6 13.63 6.33C12.67 6.05 11.66 6.02 10.69 6.24C9.72 6.46 8.82 6.92 8.07 7.59C7.33 8.25 6.76 9.09 6.43 10.03C6.31 10.37 6.49 10.74 6.83 10.86C7.16 10.98 7.54 10.8 7.66 10.46C7.91 9.73 8.36 9.07 8.94 8.56C9.52 8.04 10.22 7.68 10.98 7.51ZM5.33 12.56C5.25 12.6 5.17 12.65 5.11 12.72C4.99 12.83 4.94 12.98 4.93 13.13C4.93 13.14 4.93 13.15 4.93 13.16L4.93 13.16L4.93 16.66C4.93 17.02 5.22 17.31 5.58 17.31C5.94 17.31 6.23 17.02 6.23 16.66L6.23 14.66L7.83 16.17C8.54 16.87 9.41 17.39 10.36 17.66C11.32 17.94 12.33 17.97 13.3 17.75C14.27 17.53 15.17 17.07 15.92 16.4C16.66 15.74 17.23 14.9 17.56 13.96C17.68 13.62 17.5 13.25 17.16 13.13C16.83 13.01 16.45 13.19 16.33 13.53C16.08 14.26 15.64 14.92 15.05 15.43C14.47 15.95 13.77 16.31 13.01 16.48C12.26 16.65 11.47 16.63 10.72 16.41C9.97 16.2 9.29 15.8 8.75 15.25C8.74 15.24 8.74 15.24 8.73 15.23L7.22 13.81L9.08 13.81C9.44 13.81 9.73 13.52 9.73 13.16C9.73 12.8 9.44 12.51 9.08 12.51L5.58 12.51C5.57 12.51 5.57 12.51 5.56 12.51C5.48 12.52 5.4 12.53 5.33 12.56Z" fill="#FFFFFF" fill-opacity="1.000000" fill-rule="evenodd"/>
		</g>
	</g>
</svg>
