<svg width="24.000000" height="24.000000" viewBox="0 0 24 24" fill="none" xmlns="http://www.w3.org/2000/svg" xmlns:xlink="http://www.w3.org/1999/xlink">
	<desc>
			Created with Pixso.
	</desc>
	<defs>
		<clipPath id="clip84_8914">
			<rect id="Icon " width="15.000000" height="15.000000" transform="translate(4.000000 5.000000)" fill="white" fill-opacity="0"/>
		</clipPath>
		<clipPath id="clip709_378">
			<rect id="Icon (L)" width="24.000000" height="24.000000" fill="white" fill-opacity="0"/>
		</clipPath>
	</defs>
	<rect id="Icon (L)" width="24.000000" height="24.000000" fill="#FFFFFF" fill-opacity="0"/>
	<g clip-path="url(#clip709_378)">
		<circle id="Ellipse 1" cx="12.000000" cy="12.000000" r="12.000000" fill="#C22037" fill-opacity="1.000000"/>
		<rect id="Icon " width="15.000000" height="15.000000" transform="translate(4.000000 5.000000)" fill="#FFFFFF" fill-opacity="0"/>
		<g clip-path="url(#clip84_8914)">
			<path id="Vector" d="M11.15 19.89C11.15 19.89 11.15 19.89 11.5 19.37L11.84 19.89C11.63 20.03 11.36 20.03 11.15 19.89ZM11.15 19.89L11.5 19.37C11.84 19.89 11.84 19.89 11.84 19.89L11.84 19.89L11.85 19.89L11.86 19.88C11.87 19.87 11.89 19.86 11.91 19.84C11.96 19.81 12.02 19.77 12.1 19.71C12.26 19.59 12.49 19.42 12.76 19.2C13.31 18.77 14.03 18.15 14.76 17.38C16.19 15.87 17.75 13.68 17.75 11.25C17.75 9.59 17.09 8 15.91 6.83C14.74 5.65 13.15 5 11.5 5C9.84 5 8.25 5.65 7.08 6.83C5.9 8 5.25 9.59 5.25 11.25C5.25 13.68 6.8 15.87 8.23 17.38C8.96 18.15 9.68 18.77 10.23 19.2C10.5 19.42 10.73 19.59 10.89 19.71C10.97 19.77 11.03 19.81 11.08 19.84C11.1 19.86 11.12 19.87 11.13 19.88L11.14 19.89L11.15 19.89L11.15 19.89ZM7.96 7.71C8.9 6.77 10.17 6.25 11.5 6.25C12.82 6.25 14.09 6.77 15.03 7.71C15.97 8.65 16.5 9.92 16.5 11.25C16.5 13.18 15.24 15.06 13.85 16.52C13.18 17.23 12.5 17.82 11.99 18.23C11.79 18.38 11.63 18.5 11.5 18.6C11.36 18.5 11.2 18.38 11 18.23C10.5 17.82 9.81 17.23 9.14 16.52C7.75 15.06 6.5 13.18 6.5 11.25C6.5 9.92 7.02 8.65 7.96 7.71ZM11.5 8.75C10.11 8.75 9 9.86 9 11.25C9 12.63 10.11 13.75 11.5 13.75C12.88 13.75 14 12.63 14 11.25C14 9.86 12.88 8.75 11.5 8.75ZM10.25 11.25C10.25 10.55 10.81 10 11.5 10C12.18 10 12.75 10.55 12.75 11.25C12.75 11.94 12.18 12.5 11.5 12.5C10.81 12.5 10.25 11.94 10.25 11.25Z" fill="#FFFFFF" fill-opacity="1.000000" fill-rule="evenodd"/>
		</g>
	</g>
</svg>
