<svg width="16.000000" height="16.000000" viewBox="0 0 16 16" fill="none" xmlns="http://www.w3.org/2000/svg" xmlns:xlink="http://www.w3.org/1999/xlink">
	<desc>
			Created with Pixso.
	</desc>
	<defs>
		<clipPath id="clip49_33148">
			<rect id="Icon (L)" width="16.000000" height="16.000000" transform="translate(0.000000 -0.500000)" fill="white" fill-opacity="0"/>
		</clipPath>
	</defs>
	<rect id="Icon (L)" width="16.000000" height="16.000000" transform="translate(0.000000 -0.500000)" fill="#FFFFFF" fill-opacity="0"/>
	<g clip-path="url(#clip49_33148)">
		<path id="Vector" d="M14.63 5.61C14.58 5.49 14.51 5.38 14.41 5.3C14.3 5.22 14.18 5.17 14.05 5.16L10.25 4.86L8.6 1.22C8.55 1.1 8.47 1 8.36 0.93C8.25 0.86 8.12 0.83 8 0.83C7.87 0.83 7.74 0.86 7.63 0.93C7.53 1 7.44 1.1 7.39 1.22L5.74 4.86L1.94 5.16C1.82 5.17 1.69 5.22 1.59 5.3C1.49 5.38 1.41 5.48 1.37 5.6C1.33 5.72 1.32 5.85 1.35 5.98C1.37 6.1 1.44 6.22 1.53 6.31L4.34 9.04L3.35 13.34C3.32 13.48 3.33 13.61 3.37 13.74C3.42 13.86 3.51 13.97 3.62 14.04C3.73 14.12 3.86 14.16 3.99 14.16C4.12 14.16 4.25 14.12 4.37 14.05L8 11.63L11.63 14.05C11.74 14.12 11.87 14.16 12.01 14.16C12.15 14.16 12.28 14.11 12.39 14.03C12.5 13.95 12.58 13.84 12.63 13.71C12.67 13.58 12.67 13.44 12.64 13.31L11.42 9.05L14.44 6.32C14.64 6.15 14.71 5.87 14.63 5.61Z" fill="#C22037" fill-opacity="1.000000" fill-rule="nonzero"/>
		<path id="Vector (Stroke)" d="M8 0.16C8.25 0.16 8.48 0.31 8.59 0.53L10.5 4.39L14.76 5.02C15.01 5.05 15.22 5.23 15.3 5.47C15.37 5.71 15.31 5.98 15.13 6.15L12.04 9.16L12.77 13.4C12.82 13.65 12.71 13.9 12.51 14.05C12.3 14.2 12.03 14.22 11.8 14.1L8 12.1L4.18 14.1C3.96 14.22 3.69 14.2 3.48 14.05C3.28 13.9 3.17 13.65 3.22 13.4L3.94 9.16L0.86 6.15C0.68 5.98 0.62 5.71 0.69 5.47C0.77 5.23 0.98 5.05 1.23 5.02L5.49 4.39L7.4 0.53C7.51 0.31 7.74 0.16 8 0.16ZM8 2.33L6.53 5.3C6.43 5.49 6.25 5.63 6.03 5.66L2.76 6.14L5.13 8.44C5.28 8.6 5.35 8.82 5.32 9.04L4.76 12.29L7.68 10.75C7.88 10.65 8.11 10.65 8.31 10.75L11.23 12.29L10.67 9.04C10.63 8.82 10.71 8.6 10.86 8.44L13.23 6.14L9.96 5.66C9.74 5.63 9.55 5.49 9.46 5.3L8 2.33Z" fill="#C22037" fill-opacity="1.000000" fill-rule="evenodd"/>
	</g>
</svg>
