<svg width="16.000000" height="16.000000" viewBox="0 0 16 16" fill="none" xmlns="http://www.w3.org/2000/svg" xmlns:xlink="http://www.w3.org/1999/xlink">
	<desc>
			Created with Pixso.
	</desc>
	<defs>
		<clipPath id="clip868_20240">
			<rect id="Icon (L)" width="16.000000" height="16.000000" fill="white" fill-opacity="0"/>
		</clipPath>
	</defs>
	<rect id="Icon (L)" width="16.000000" height="16.000000" fill="#FFFFFF" fill-opacity="0"/>
	<g clip-path="url(#clip868_20240)">
		<path id="Vector (Stroke)" d="M9.64 1.66C10.16 1.44 10.73 1.33 11.3 1.33C11.87 1.33 12.43 1.44 12.95 1.66C13.48 1.87 13.96 2.19 14.36 2.6C14.76 3 15.08 3.48 15.3 4C15.52 4.53 15.63 5.09 15.63 5.66C15.63 6.23 15.52 6.79 15.3 7.32C15.08 7.85 14.76 8.32 14.36 8.73L8.47 14.62C8.21 14.88 7.78 14.88 7.52 14.62L1.63 8.73C0.82 7.91 0.36 6.81 0.36 5.66C0.36 4.51 0.82 3.41 1.63 2.6C2.44 1.78 3.55 1.33 4.7 1.33C5.84 1.33 6.95 1.78 7.76 2.6L8 2.83L8.23 2.6C8.63 2.19 9.11 1.87 9.64 1.66ZM11.3 2.66C10.9 2.66 10.51 2.74 10.15 2.89C9.78 3.04 9.45 3.26 9.17 3.54L8.47 4.25C8.21 4.51 7.78 4.51 7.52 4.25L6.82 3.54C6.25 2.98 5.49 2.66 4.7 2.66C3.9 2.66 3.14 2.98 2.57 3.54C2.01 4.1 1.69 4.87 1.69 5.66C1.69 6.46 2.01 7.22 2.57 7.78L8 13.21L13.42 7.78C13.7 7.51 13.92 7.17 14.07 6.81C14.22 6.45 14.3 6.06 14.3 5.66C14.3 5.27 14.22 4.88 14.07 4.51C13.92 4.15 13.7 3.82 13.42 3.54C13.14 3.26 12.81 3.04 12.44 2.89C12.08 2.74 11.69 2.66 11.3 2.66Z" fill="#252525" fill-opacity="1.000000" fill-rule="evenodd"/>
	</g>
</svg>
