<svg width="24.000000" height="24.000000" viewBox="0 0 24 24" fill="none" xmlns="http://www.w3.org/2000/svg" xmlns:xlink="http://www.w3.org/1999/xlink">
	<desc>
			Created with Pixso.
	</desc>
	<defs>
		<clipPath id="clip112_15169">
			<rect id="Icon (L)" width="24.000000" height="24.000000" fill="white" fill-opacity="0"/>
		</clipPath>
	</defs>
	<rect id="Icon (L)" width="24.000000" height="24.000000" fill="#FFFFFF" fill-opacity="0"/>
	<g clip-path="url(#clip112_15169)">
		<path id="Vector (Stroke)" d="M5 7C4.73 7 4.48 7.1 4.29 7.29C4.1 7.48 4 7.73 4 8L4 19C4 19.26 4.1 19.51 4.29 19.7C4.48 19.89 4.73 20 5 20L16 20C16.26 20 16.51 19.89 16.7 19.7C16.89 19.51 17 19.26 17 19L17 13C17 12.44 17.44 12 18 12C18.55 12 19 12.44 19 13L19 19C19 19.79 18.68 20.55 18.12 21.12C17.55 21.68 16.79 22 16 22L5 22C4.2 22 3.44 21.68 2.87 21.12C2.31 20.55 2 19.79 2 19L2 8C2 7.2 2.31 6.44 2.87 5.87C3.44 5.31 4.2 5 5 5L11 5C11.55 5 12 5.44 12 6C12 6.55 11.55 7 11 7L5 7Z" fill="#252525" fill-opacity="1.000000" fill-rule="evenodd"/>
		<path id="Vector (Stroke)" d="M14 3C14 2.44 14.44 2 15 2L21 2C21.55 2 22 2.44 22 3L22 9C22 9.55 21.55 10 21 10C20.44 10 20 9.55 20 9L20 4L15 4C14.44 4 14 3.55 14 3Z" fill="#252525" fill-opacity="1.000000" fill-rule="evenodd"/>
		<path id="Vector (Stroke)" d="M21.7 2.29C22.09 2.68 22.09 3.31 21.7 3.7L10.7 14.7C10.31 15.09 9.68 15.09 9.29 14.7C8.9 14.31 8.9 13.68 9.29 13.29L20.29 2.29C20.68 1.9 21.31 1.9 21.7 2.29Z" fill="#252525" fill-opacity="1.000000" fill-rule="evenodd"/>
	</g>
</svg>
