<svg width="21.000000" height="20.655762" viewBox="0 0 21 20.6558" fill="none" xmlns="http://www.w3.org/2000/svg" xmlns:xlink="http://www.w3.org/1999/xlink">
	<desc>
			Created with Pixso.
	</desc>
	<defs>
		<clipPath id="clip245_22200">
			<rect id="ic:round-keyboard-return" width="21.000000" height="20.655737" fill="white" fill-opacity="0"/>
		</clipPath>
	</defs>
	<rect id="ic:round-keyboard-return" width="21.000000" height="20.655737" fill="#FFFFFF" fill-opacity="0"/>
	<g clip-path="url(#clip245_22200)">
		<path id="Vector" d="M15.99 7.19L15.99 9.42L6.07 9.42L8.24 7.28C8.38 7.14 8.46 6.95 8.46 6.76C8.46 6.56 8.38 6.37 8.24 6.24C8.09 6.1 7.9 6.02 7.7 6.02C7.51 6.02 7.31 6.1 7.17 6.24L3.72 9.64C3.65 9.71 3.59 9.79 3.55 9.88C3.51 9.97 3.5 10.06 3.5 10.16C3.5 10.26 3.51 10.35 3.55 10.44C3.59 10.53 3.65 10.61 3.72 10.68L7.17 14.08C7.24 14.15 7.33 14.21 7.42 14.24C7.51 14.28 7.61 14.3 7.7 14.3C7.8 14.3 7.9 14.28 7.99 14.24C8.08 14.21 8.17 14.15 8.24 14.08C8.31 14.02 8.36 13.93 8.4 13.84C8.44 13.75 8.46 13.66 8.46 13.56C8.46 13.46 8.44 13.37 8.4 13.28C8.36 13.19 8.31 13.11 8.24 13.04L6.07 10.9L16.74 10.9C17.16 10.9 17.5 10.56 17.5 10.16L17.5 7.19C17.5 6.78 17.16 6.45 16.74 6.45C16.33 6.45 15.99 6.78 15.99 7.19Z" fill="#252525" fill-opacity="1.000000" fill-rule="nonzero"/>
	</g>
</svg>
