<svg width="24.000000" height="24.000000" viewBox="0 0 24 24" fill="none" xmlns="http://www.w3.org/2000/svg" xmlns:xlink="http://www.w3.org/1999/xlink">
	<desc>
			Created with Pixso.
	</desc>
	<defs>
		<clipPath id="clip51_24187">
			<rect id="Iocn/telegram" width="16.000000" height="16.000000" transform="translate(4.000000 4.000000)" fill="white" fill-opacity="0"/>
		</clipPath>
		<clipPath id="clip51_24188">
			<rect id="Small/Icon/telegram" width="24.000000" height="24.000000" fill="white" fill-opacity="0"/>
		</clipPath>
	</defs>
	<rect id="Small/Icon/telegram" width="24.000000" height="24.000000" fill="#FFFFFF" fill-opacity="0"/>
	<g clip-path="url(#clip51_24188)">
		<path id="Vector" d="M12 0C5.37 0 0 5.37 0 12C0 18.62 5.37 24 12 24C18.62 24 24 18.62 24 12C24 5.37 18.62 0 12 0Z" fill="#40B3E0" fill-opacity="1.000000" fill-rule="nonzero"/>
		<rect id="Iocn/telegram" width="16.000000" height="16.000000" transform="translate(4.000000 4.000000)" fill="#FFFFFF" fill-opacity="0"/>
		<g clip-path="url(#clip51_24187)">
			<path id="Vector" d="M17.03 5.99C16.87 6 16.71 6.04 16.56 6.1L16.56 6.1C16.42 6.16 15.74 6.45 14.71 6.88L11.02 8.43C8.37 9.55 5.77 10.65 5.77 10.65L5.8 10.63C5.8 10.63 5.62 10.69 5.43 10.82C5.32 10.9 5.22 10.99 5.14 11.1C5.05 11.24 4.97 11.45 5 11.66C5.05 12.02 5.28 12.24 5.45 12.36C5.62 12.48 5.78 12.53 5.78 12.53L5.78 12.53L8.23 13.36C8.33 13.71 8.97 15.79 9.12 16.27C9.21 16.56 9.3 16.74 9.41 16.88C9.46 16.95 9.52 17.01 9.6 17.05C9.64 17.08 9.68 17.09 9.72 17.11L9.7 17.1C9.7 17.1 9.71 17.11 9.72 17.11C9.74 17.12 9.75 17.12 9.77 17.12C10.16 17.24 10.47 17 10.47 17L10.49 16.99L11.93 15.67L14.35 17.53L14.4 17.55C14.91 17.77 15.41 17.65 15.68 17.43C15.96 17.21 16.06 16.93 16.06 16.93L16.08 16.89L17.95 7.32C18 7.09 18.01 6.87 17.95 6.65C17.89 6.43 17.75 6.25 17.56 6.13C17.4 6.03 17.22 5.98 17.03 5.99ZM16.98 7.02C16.98 7.05 16.98 7.05 16.97 7.11L16.97 7.11L15.12 16.58C15.11 16.59 15.1 16.62 15.06 16.65C15.02 16.68 14.99 16.7 14.83 16.64L11.87 14.37L10.09 16L10.46 13.6L15.29 9.1C15.49 8.92 15.42 8.88 15.42 8.88C15.44 8.65 15.12 8.81 15.12 8.81L9.04 12.58L9.03 12.57L6.12 11.59L6.12 11.59L6.11 11.59C6.11 11.59 6.12 11.58 6.12 11.58L6.14 11.57L6.16 11.57C6.16 11.57 8.76 10.47 11.41 9.35C12.74 8.8 14.07 8.23 15.1 7.8C16.13 7.37 16.89 7.05 16.93 7.04C16.97 7.02 16.95 7.02 16.98 7.02L16.98 7.02Z" fill="#FFFFFF" fill-opacity="1.000000" fill-rule="nonzero"/>
		</g>
	</g>
</svg>
