<svg width="48.000000" height="48.000000" viewBox="0 0 48 48" fill="none" xmlns="http://www.w3.org/2000/svg" xmlns:xlink="http://www.w3.org/1999/xlink">
	<desc>
			Created with Pixso.
	</desc>
	<defs/>
	<rect id="big icon" width="48.000000" height="48.000000" fill="#FFFFFF" fill-opacity="0"/>
	<circle id="Ellipse 9" cx="24.000000" cy="24.000000" r="24.000000" fill="#C22037" fill-opacity="1.000000"/>
	<rect id="Icon/shopping-bag" width="24.000000" height="24.000000" transform="translate(12.000000 12.000000)" fill="#FFFFFF" fill-opacity="0"/>
	<path id="Vector" d="M13 12C12.44 12 12 12.44 12 13C12 13.55 12.44 14 13 14L16.18 14L17.01 18.15C17.01 18.18 17.02 18.21 17.02 18.23L18.69 26.58C18.83 27.27 19.21 27.89 19.76 28.33C20.3 28.77 20.98 29.01 21.68 29L31.39 29C32.09 29.01 32.77 28.77 33.31 28.33C33.86 27.89 34.24 27.27 34.38 26.58L35.98 18.18C36.03 17.89 35.96 17.59 35.77 17.36C35.58 17.13 35.29 17 35 17L18.82 17L17.98 12.8C17.88 12.33 17.47 12 17 12L13 12ZM20.66 26.19L19.22 19L33.79 19L32.41 26.19C32.37 26.42 32.24 26.63 32.06 26.77C31.88 26.92 31.65 27 31.41 27L31.39 27L21.68 27L21.66 27C21.42 27 21.19 26.92 21.01 26.77C20.83 26.63 20.7 26.42 20.66 26.19ZM19 33C19 31.89 19.89 31 21 31C22.1 31 23 31.89 23 33C23 34.1 22.1 35 21 35C19.89 35 19 34.1 19 33ZM30 33C30 31.89 30.89 31 32 31C33.1 31 34 31.89 34 33C34 34.1 33.1 35 32 35C30.89 35 30 34.1 30 33Z" fill="#FFFFFF" fill-opacity="1.000000" fill-rule="evenodd"/>
</svg>
