<svg width="16.000000" height="16.000000" viewBox="0 0 16 16" fill="none" xmlns="http://www.w3.org/2000/svg" xmlns:xlink="http://www.w3.org/1999/xlink">
	<desc>
			Created with Pixso.
	</desc>
	<defs>
		<clipPath id="clip256_42209">
			<rect id="Icon (L)" width="16.000000" height="16.000000" fill="white" fill-opacity="0"/>
		</clipPath>
	</defs>
	<rect id="Icon (L)" width="16.000000" height="16.000000" fill="#FFFFFF" fill-opacity="0"/>
	<g clip-path="url(#clip256_42209)">
		<path id="Vector" d="M14.63 6.11C14.58 5.99 14.51 5.88 14.4 5.8C14.3 5.72 14.18 5.67 14.05 5.66L10.25 5.36L8.6 1.72C8.55 1.6 8.46 1.5 8.36 1.43C8.25 1.36 8.12 1.33 8 1.33C7.87 1.33 7.74 1.36 7.63 1.43C7.53 1.5 7.44 1.6 7.39 1.72L5.74 5.36L1.94 5.66C1.81 5.67 1.69 5.72 1.59 5.8C1.49 5.88 1.41 5.98 1.37 6.1C1.32 6.22 1.32 6.35 1.34 6.48C1.37 6.6 1.44 6.72 1.53 6.81L4.34 9.54L3.34 13.85C3.31 13.98 3.32 14.11 3.37 14.24C3.42 14.36 3.51 14.47 3.62 14.54C3.73 14.62 3.86 14.66 3.99 14.66C4.12 14.66 4.25 14.62 4.37 14.55L8 12.13L11.62 14.55C11.74 14.63 11.87 14.66 12.01 14.66C12.14 14.66 12.28 14.61 12.39 14.53C12.5 14.45 12.58 14.34 12.62 14.21C12.67 14.08 12.67 13.94 12.64 13.81L11.42 9.55L14.44 6.82C14.64 6.65 14.71 6.37 14.63 6.11Z" fill="#D0D0D0" fill-opacity="1.000000" fill-rule="nonzero"/>
	</g>
</svg>
