<svg width="24.000000" height="24.000000" viewBox="0 0 24 24" fill="none" xmlns="http://www.w3.org/2000/svg" xmlns:xlink="http://www.w3.org/1999/xlink">
	<desc>
			Created with Pixso.
	</desc>
	<defs>
		<clipPath id="clip402_27928">
			<rect id="Icon (L)" width="24.000000" height="24.000000" fill="white" fill-opacity="0"/>
		</clipPath>
	</defs>
	<rect id="Icon (L)" width="24.000000" height="24.000000" fill="#FFFFFF" fill-opacity="0"/>
	<g clip-path="url(#clip402_27928)">
		<path id="Ellipse 1" d="M24 12C24 18.62 18.62 24 12 24C5.37 24 0 18.62 0 12C0 5.37 5.37 0 12 0C18.62 0 24 5.37 24 12Z" fill="#C22037" fill-opacity="1.000000" fill-rule="nonzero"/>
		<path id="Vector" d="M8.79 6.68C7.62 6.68 6.68 7.62 6.68 8.79C6.68 9.95 7.62 10.9 8.79 10.9C9.95 10.9 10.9 9.95 10.9 8.79C10.9 7.62 9.95 6.68 8.79 6.68ZM16.54 7.45C16.79 7.71 16.79 8.12 16.54 8.37L8.37 16.54C8.12 16.79 7.71 16.79 7.45 16.54C7.2 16.28 7.2 15.87 7.45 15.62L15.62 7.45C15.87 7.2 16.28 7.2 16.54 7.45ZM7.98 8.79C7.98 8.34 8.34 7.98 8.79 7.98C9.23 7.98 9.6 8.34 9.6 8.79C9.6 9.23 9.23 9.6 8.79 9.6C8.34 9.6 7.98 9.23 7.98 8.79ZM13.1 15.2C13.1 14.04 14.04 13.1 15.2 13.1C16.37 13.1 17.31 14.04 17.31 15.2C17.31 16.37 16.37 17.31 15.2 17.31C14.04 17.31 13.1 16.37 13.1 15.2ZM15.2 14.4C14.76 14.4 14.4 14.76 14.4 15.2C14.4 15.65 14.76 16.01 15.2 16.01C15.65 16.01 16.01 15.65 16.01 15.2C16.01 14.76 15.65 14.4 15.2 14.4Z" fill="#FFFFFF" fill-opacity="1.000000" fill-rule="evenodd"/>
	</g>
</svg>
