<svg width="11.000000" height="11.000000" viewBox="0 0 11 11" fill="none" xmlns="http://www.w3.org/2000/svg" xmlns:xlink="http://www.w3.org/1999/xlink">
	<desc>
			Created with Pixso.
	</desc>
	<defs/>
	<path id="Vector" d="M5.66 0.33C5.66 -0.04 5.36 -0.34 5 -0.34C4.63 -0.34 4.33 -0.04 4.33 0.33L4.33 4.33L0.33 4.33C-0.04 4.33 -0.34 4.63 -0.34 5C-0.34 5.36 -0.04 5.66 0.33 5.66L4.33 5.66L4.33 9.66C4.33 10.03 4.63 10.33 5 10.33C5.36 10.33 5.66 10.03 5.66 9.66L5.66 5.66L9.66 5.66C10.03 5.66 10.33 5.36 10.33 5C10.33 4.63 10.03 4.33 9.66 4.33L5.66 4.33L5.66 0.33Z" fill="#252525" fill-opacity="1.000000" fill-rule="evenodd"/>
</svg>
