<svg width="24.000000" height="24.000000" viewBox="0 0 24 24" fill="none" xmlns="http://www.w3.org/2000/svg" xmlns:xlink="http://www.w3.org/1999/xlink">
	<desc>
			Created with Pixso.
	</desc>
	<defs>
		<clipPath id="clip27_7465">
			<rect id="Icon (L)" width="24.000000" height="24.000000" fill="white" fill-opacity="0"/>
		</clipPath>
	</defs>
	<rect id="Icon (L)" width="24.000000" height="24.000000" fill="#FFFFFF" fill-opacity="0"/>
	<g clip-path="url(#clip27_7465)">
		<path id="Vector" d="M12.7 5.7C13.09 5.31 13.09 4.68 12.7 4.29C12.31 3.9 11.68 3.9 11.29 4.29L4.29 11.29L4.29 11.29C4.29 11.29 4.29 11.29 4.29 11.29C4.11 11.47 4 11.72 4 12C4 12.13 4.02 12.26 4.07 12.38C4.12 12.5 4.19 12.6 4.29 12.7C4.29 12.7 4.29 12.7 4.29 12.7L11.29 19.7C11.68 20.09 12.31 20.09 12.7 19.7C13.09 19.31 13.09 18.68 12.7 18.29L7.41 13L19 13C19.55 13 20 12.55 20 12C20 11.44 19.55 11 19 11L7.41 11L12.7 5.7Z" fill="#252525" fill-opacity="1.000000" fill-rule="evenodd"/>
	</g>
</svg>
