<svg width="24.000000" height="25.714355" viewBox="0 0 24 25.7144" fill="none" xmlns="http://www.w3.org/2000/svg" xmlns:xlink="http://www.w3.org/1999/xlink">
	<desc>
			Created with Pixso.
	</desc>
	<defs>
		<clipPath id="clip402_7614">
			<rect id="Icon/shopping-bag" width="24.000000" height="25.714285" fill="white" fill-opacity="0"/>
		</clipPath>
	</defs>
	<rect id="Icon/shopping-bag" width="24.000000" height="25.714285" fill="#FFFFFF" fill-opacity="0"/>
	<g clip-path="url(#clip402_7614)">
		<path id="Vector" d="M1 0C0.44 0 0 0.47 0 1.07C0 1.66 0.44 2.14 1 2.14L4.18 2.14L5.01 6.59C5.01 6.62 5.02 6.65 5.02 6.68L6.69 15.62C6.83 16.36 7.21 17.03 7.76 17.5C8.3 17.97 8.98 18.22 9.68 18.21L19.39 18.21C20.09 18.22 20.77 17.97 21.31 17.5C21.86 17.03 22.24 16.36 22.38 15.62L23.98 6.62C24.03 6.31 23.96 5.99 23.77 5.74C23.58 5.49 23.29 5.35 23 5.35L6.82 5.35L5.98 0.86C5.88 0.36 5.47 0 5 0L1 0ZM8.66 15.2L7.22 7.5L21.79 7.5L20.41 15.21C20.37 15.45 20.24 15.67 20.06 15.83C19.88 15.99 19.65 16.07 19.41 16.07L19.39 16.07L9.68 16.07L9.66 16.07C9.42 16.07 9.19 15.99 9.01 15.83C8.83 15.67 8.7 15.45 8.66 15.2ZM7 22.5C7 21.31 7.89 20.35 9 20.35C10.1 20.35 11 21.31 11 22.5C11 23.68 10.1 24.64 9 24.64C7.89 24.64 7 23.68 7 22.5ZM18 22.5C18 21.31 18.89 20.35 20 20.35C21.1 20.35 22 21.31 22 22.5C22 23.68 21.1 24.64 20 24.64C18.89 24.64 18 23.68 18 22.5Z" fill="#252525" fill-opacity="1.000000" fill-rule="evenodd"/>
	</g>
</svg>
