<svg width="24.000000" height="24.000000" viewBox="0 0 24 24" fill="none" xmlns="http://www.w3.org/2000/svg" xmlns:xlink="http://www.w3.org/1999/xlink">
	<desc>
			Created with Pixso.
	</desc>
	<defs>
		<clipPath id="clip89_271">
			<rect id="Icon/heart" width="24.000000" height="24.000000" fill="white" fill-opacity="0"/>
		</clipPath>
	</defs>
	<rect id="Icon/heart" width="24.000000" height="24.000000" fill="#FFFFFF" fill-opacity="0"/>
	<g clip-path="url(#clip89_271)">
		<path id="Vector (Stroke)" d="M14.46 2.49C15.25 2.16 16.09 1.99 16.95 1.99C17.8 1.99 18.64 2.16 19.43 2.49C20.22 2.82 20.94 3.29 21.54 3.9C22.15 4.5 22.62 5.22 22.95 6.01C23.28 6.8 23.45 7.64 23.45 8.5C23.45 9.35 23.28 10.19 22.95 10.98C22.62 11.77 22.15 12.49 21.54 13.09L12.7 21.93C12.31 22.32 11.68 22.32 11.29 21.93L2.45 13.09C1.23 11.87 0.54 10.22 0.54 8.5C0.54 6.77 1.23 5.12 2.45 3.9C3.67 2.68 5.32 1.99 7.05 1.99C8.77 1.99 10.42 2.68 11.64 3.9L12 4.25L12.35 3.9C12.95 3.29 13.67 2.82 14.46 2.49ZM16.95 3.99C16.35 3.99 15.77 4.11 15.22 4.34C14.68 4.56 14.18 4.89 13.76 5.31L12.7 6.37C12.31 6.76 11.68 6.76 11.29 6.37L10.23 5.31C9.38 4.47 8.24 3.99 7.05 3.99C5.85 3.99 4.71 4.47 3.86 5.31C3.02 6.16 2.54 7.3 2.54 8.5C2.54 9.69 3.02 10.83 3.86 11.68L12 19.81L20.13 11.68C20.55 11.26 20.88 10.76 21.1 10.22C21.33 9.67 21.45 9.09 21.45 8.5C21.45 7.9 21.33 7.32 21.1 6.77C20.88 6.23 20.55 5.73 20.13 5.31C19.71 4.89 19.21 4.56 18.67 4.34C18.12 4.11 17.54 3.99 16.95 3.99Z" fill="#252525" fill-opacity="1.000000" fill-rule="evenodd"/>
	</g>
</svg>
