<svg width="24.000000" height="24.000000" viewBox="0 0 24 24" fill="none" xmlns="http://www.w3.org/2000/svg" xmlns:xlink="http://www.w3.org/1999/xlink">
	<desc>
			Created with Pixso.
	</desc>
	<defs>
		<clipPath id="clip402_27919">
			<rect id="Icon (L)" width="24.000000" height="24.000000" fill="white" fill-opacity="0"/>
		</clipPath>
	</defs>
	<rect id="Icon (L)" width="24.000000" height="24.000000" fill="#FFFFFF" fill-opacity="0"/>
	<g clip-path="url(#clip402_27919)">
		<path id="Ellipse 1" d="M24 12C24 18.62 18.62 24 12 24C5.37 24 0 18.62 0 12C0 5.37 5.37 0 12 0C18.62 0 24 5.37 24 12Z" fill="#C22037" fill-opacity="1.000000" fill-rule="nonzero"/>
		<path id="Vector" d="M12.95 4.75L18.58 7.85C18.67 7.89 18.74 7.97 18.79 8.05C18.84 8.14 18.87 8.24 18.87 8.34L18.87 15.65C18.87 15.75 18.84 15.85 18.79 15.94C18.74 16.02 18.67 16.1 18.58 16.14L12.95 19.24C12.87 19.28 12.78 19.31 12.68 19.31C12.59 19.31 12.49 19.28 12.41 19.24L10.36 18.11C10.09 17.96 9.99 17.62 10.14 17.35C10.29 17.08 10.63 16.98 10.9 17.13L12.12 17.79L12.12 11.76L6.79 8.83C6.7 8.78 6.62 8.71 6.57 8.62C6.52 8.54 6.5 8.44 6.5 8.34C6.5 8.24 6.52 8.14 6.57 8.05C6.62 7.97 6.7 7.89 6.79 7.85L12.41 4.75C12.49 4.71 12.59 4.68 12.68 4.68C12.78 4.68 12.87 4.71 12.95 4.75ZM17.14 8.34L12.68 5.89L8.22 8.34L12.68 10.79L17.14 8.34ZM13.25 17.79L17.75 15.32L17.75 9.29L13.25 11.76L13.25 17.79ZM7.06 11.99C7.37 11.99 7.62 11.74 7.62 11.43C7.62 11.12 7.37 10.87 7.06 10.87L3.68 10.87C3.37 10.87 3.12 11.12 3.12 11.43C3.12 11.74 3.37 11.99 3.68 11.99L7.06 11.99ZM9.31 14.24C9.62 14.24 9.87 13.99 9.87 13.68C9.87 13.37 9.62 13.12 9.31 13.12L5.93 13.12C5.62 13.12 5.37 13.37 5.37 13.68C5.37 13.99 5.62 14.24 5.93 14.24L9.31 14.24ZM8.75 15.93C8.75 16.24 8.49 16.49 8.18 16.49L4.81 16.49C4.5 16.49 4.25 16.24 4.25 15.93C4.25 15.62 4.5 15.37 4.81 15.37L8.18 15.37C8.49 15.37 8.75 15.62 8.75 15.93Z" fill="#FFFFFF" fill-opacity="1.000000" fill-rule="evenodd"/>
	</g>
</svg>
