<svg width="24.000000" height="24.000000" viewBox="0 0 24 24" fill="none" xmlns="http://www.w3.org/2000/svg" xmlns:xlink="http://www.w3.org/1999/xlink">
	<desc>
			Created with Pixso.
	</desc>
	<defs>
		<clipPath id="clip402_27947">
			<rect id="Icon (L)" width="24.000000" height="24.000000" fill="white" fill-opacity="0"/>
		</clipPath>
	</defs>
	<rect id="Icon (L)" width="24.000000" height="24.000000" fill="#FFFFFF" fill-opacity="0"/>
	<g clip-path="url(#clip402_27947)">
		<path id="Ellipse 1" d="M24 12C24 18.62 18.62 24 12 24C5.37 24 0 18.62 0 12C0 5.37 5.37 0 12 0C18.62 0 24 5.37 24 12Z" fill="#C22037" fill-opacity="1.000000" fill-rule="nonzero"/>
		<path id="Vector" d="M9 9.54C8.99 9.58 9 9.61 9.01 9.65C9.03 9.68 9.04 9.71 9.07 9.74C9.1 9.76 9.13 9.78 9.16 9.8C9.19 9.81 9.23 9.82 9.26 9.82L10.18 9.82C10.34 9.82 10.46 9.69 10.48 9.54C10.58 8.81 11.08 8.28 11.97 8.28C12.74 8.28 13.44 8.66 13.44 9.58C13.44 10.28 13.02 10.61 12.36 11.1C11.61 11.65 11.02 12.28 11.06 13.32L11.07 13.56C11.07 13.63 11.1 13.7 11.15 13.75C11.2 13.8 11.27 13.83 11.34 13.83L12.25 13.83C12.32 13.83 12.39 13.8 12.44 13.75C12.5 13.7 12.53 13.63 12.53 13.55L12.53 13.44C12.53 12.64 12.83 12.41 13.65 11.78C14.33 11.27 15.04 10.69 15.04 9.49C15.04 7.81 13.62 7 12.06 7C10.65 7 9.1 7.65 9 9.54ZM10.73 15.96C10.73 16.56 11.2 17 11.85 17C12.53 17 13 16.56 13 15.96C13 15.35 12.53 14.92 11.85 14.92C11.2 14.92 10.73 15.35 10.73 15.96Z" fill="#FFFFFF" fill-opacity="1.000000" fill-rule="nonzero"/>
	</g>
</svg>
