<svg width="24.000000" height="24.000000" viewBox="0 0 24 24" fill="none" xmlns="http://www.w3.org/2000/svg" xmlns:xlink="http://www.w3.org/1999/xlink">
	<desc>
			Created with Pixso.
	</desc>
	<defs/>
	<rect id="Icon/shopping-bag" width="24.000000" height="24.000000" fill="#FFFFFF" fill-opacity="0"/>
	<path id="Vector" d="M1 0C0.44 0 0 0.44 0 1C0 1.55 0.44 2 1 2L4.18 2L5.01 6.15C5.01 6.18 5.02 6.21 5.02 6.23L6.69 14.58C6.83 15.27 7.21 15.89 7.76 16.33C8.3 16.77 8.98 17.01 9.68 17L19.39 17C20.09 17.01 20.77 16.77 21.31 16.33C21.86 15.89 22.24 15.27 22.38 14.58L23.98 6.18C24.03 5.89 23.96 5.59 23.77 5.36C23.58 5.13 23.29 5 23 5L6.82 5L5.98 0.8C5.88 0.33 5.47 0 5 0L1 0ZM8.66 14.19L7.22 7L21.79 7L20.41 14.19C20.37 14.42 20.24 14.63 20.06 14.77C19.88 14.92 19.65 15 19.41 15L19.39 15L9.68 15L9.66 15C9.42 15 9.19 14.92 9.01 14.77C8.83 14.63 8.7 14.42 8.66 14.19ZM7 21C7 19.89 7.89 19 9 19C10.1 19 11 19.89 11 21C11 22.1 10.1 23 9 23C7.89 23 7 22.1 7 21ZM18 21C18 19.89 18.89 19 20 19C21.1 19 22 19.89 22 21C22 22.1 21.1 23 20 23C18.89 23 18 22.1 18 21Z" fill="#FFFFFF" fill-opacity="1.000000" fill-rule="evenodd"/>
</svg>
