<svg width="24.000000" height="24.000000" viewBox="0 0 24 24" fill="none" xmlns="http://www.w3.org/2000/svg" xmlns:xlink="http://www.w3.org/1999/xlink">
	<desc>
			Created with Pixso.
	</desc>
	<defs>
		<clipPath id="clip423_9364">
			<rect id="fi:phone" width="14.000000" height="14.000000" transform="translate(5.000000 5.000000)" fill="white" fill-opacity="0"/>
		</clipPath>
		<clipPath id="clip423_9363">
			<rect id="fi:instagram" width="14.000000" height="14.000000" transform="translate(5.000000 5.000000)" fill="white" fill-opacity="0"/>
		</clipPath>
		<clipPath id="clip423_9422">
			<rect id="Icon/phone" width="24.000000" height="24.000000" fill="white" fill-opacity="0"/>
		</clipPath>
	</defs>
	<rect id="Icon/phone" width="24.000000" height="24.000000" fill="#FFFFFF" fill-opacity="0"/>
	<g clip-path="url(#clip423_9422)">
		<circle id="Ellipse 1" cx="12.000000" cy="12.000000" r="12.000000" fill="#C22037" fill-opacity="1.000000"/>
		<rect id="fi:instagram" width="14.000000" height="14.000000" transform="translate(5.000000 5.000000)" fill="#FFFFFF" fill-opacity="0"/>
		<g clip-path="url(#clip423_9363)">
			<rect id="fi:phone" width="14.000000" height="14.000000" transform="translate(5.000000 5.000000)" fill="#FFFFFF" fill-opacity="0"/>
			<g clip-path="url(#clip423_9364)">
				<path id="Vector" d="M17.83 16.62C17.83 16.78 17.8 16.94 17.73 17.09C17.67 17.24 17.57 17.37 17.45 17.48C17.33 17.59 17.19 17.67 17.04 17.72C16.88 17.78 16.72 17.8 16.56 17.78C14.76 17.59 13.04 16.97 11.52 15.99C10.11 15.1 8.92 13.9 8.02 12.49C7.04 10.97 6.42 9.24 6.23 7.43C6.22 7.27 6.24 7.11 6.29 6.96C6.34 6.8 6.42 6.66 6.53 6.54C6.64 6.42 6.77 6.33 6.92 6.26C7.07 6.2 7.23 6.16 7.39 6.16L9.14 6.16C9.43 6.16 9.7 6.26 9.91 6.44C10.13 6.63 10.27 6.88 10.31 7.17C10.38 7.73 10.52 8.27 10.72 8.8C10.8 9.01 10.81 9.24 10.77 9.46C10.72 9.68 10.61 9.88 10.46 10.04L9.71 10.78C10.54 12.24 11.75 13.45 13.21 14.28L13.96 13.54C14.11 13.38 14.31 13.27 14.53 13.22C14.75 13.18 14.98 13.19 15.19 13.27C15.72 13.47 16.27 13.61 16.83 13.68C17.11 13.72 17.37 13.86 17.55 14.08C17.74 14.3 17.84 14.58 17.83 14.87L17.83 16.62Z" stroke="#FFFFFF" stroke-opacity="1.000000" stroke-width="1.500000" stroke-linejoin="round"/>
			</g>
		</g>
	</g>
</svg>
