<svg width="22.000000" height="21.000000" viewBox="0 0 22 21" fill="none" xmlns="http://www.w3.org/2000/svg" xmlns:xlink="http://www.w3.org/1999/xlink">
	<desc>
			Created with Pixso.
	</desc>
	<defs>
		<clipPath id="clip245_22208">
			<rect id="ion:wallet-outline" width="22.000000" height="21.000000" fill="white" fill-opacity="0"/>
		</clipPath>
	</defs>
	<rect id="ion:wallet-outline" width="22.000000" height="21.000000" fill="#FFFFFF" fill-opacity="0"/>
	<g clip-path="url(#clip245_22208)">
		<rect id="Rectangle 316" width="22.000000" height="21.000000" fill="#C4C4C4" fill-opacity="0"/>
		<path id="Vector (Stroke)" d="M5.1 7.48C4.6 7.48 4.2 7.87 4.2 8.34L4.2 14.58C4.2 15.06 4.6 15.44 5.1 15.44L15.99 15.44C16.49 15.44 16.9 15.06 16.9 14.58L16.9 8.34C16.9 7.87 16.49 7.48 15.99 7.48L5.1 7.48ZM2.75 8.34C2.75 7.1 3.8 6.09 5.1 6.09L15.99 6.09C17.29 6.09 18.35 7.1 18.35 8.34L18.35 14.58C18.35 15.82 17.29 16.83 15.99 16.83L5.1 16.83C3.8 16.83 2.75 15.82 2.75 14.58L2.75 8.34Z" fill="#252525" fill-opacity="1.000000" fill-rule="evenodd"/>
		<path id="Vector (Stroke)" d="M13.68 3.53C14.03 3.47 14.39 3.48 14.73 3.57C15.08 3.65 15.4 3.81 15.68 4.03C15.95 4.24 16.17 4.52 16.33 4.82C16.48 5.13 16.56 5.47 16.56 5.81L16.56 6.78L15.11 6.78L15.11 5.81C15.11 5.67 15.07 5.54 15.01 5.41C14.95 5.29 14.86 5.18 14.75 5.09C14.64 5.01 14.51 4.94 14.37 4.91C14.23 4.88 14.09 4.87 13.95 4.9L13.93 4.9L4.98 6.36C4.76 6.4 4.56 6.51 4.42 6.68C4.28 6.84 4.2 7.05 4.2 7.27L4.2 8.86L2.75 8.86L2.75 7.27C2.75 6.73 2.94 6.21 3.3 5.79C3.66 5.38 4.16 5.1 4.72 5L4.73 4.99L13.68 3.53Z" fill="#252525" fill-opacity="1.000000" fill-rule="evenodd"/>
		<path id="Vector" d="M14.36 12.5C14.14 12.5 13.93 12.44 13.75 12.32C13.57 12.21 13.43 12.05 13.35 11.86C13.27 11.67 13.25 11.46 13.29 11.26C13.33 11.06 13.43 10.87 13.59 10.73C13.74 10.58 13.93 10.48 14.14 10.44C14.35 10.4 14.57 10.42 14.77 10.5C14.97 10.58 15.14 10.71 15.26 10.88C15.38 11.05 15.44 11.26 15.44 11.46C15.44 11.74 15.33 12 15.13 12.2C14.92 12.39 14.64 12.5 14.36 12.5Z" fill="#252525" fill-opacity="1.000000" fill-rule="nonzero"/>
	</g>
</svg>
