<svg width="48.000000" height="48.000000" viewBox="0 0 48 48" fill="none" xmlns="http://www.w3.org/2000/svg" xmlns:xlink="http://www.w3.org/1999/xlink">
	<desc>
			Created with Pixso.
	</desc>
	<defs>
		<clipPath id="clip197_9675">
			<rect id="Iocn/thumbs-up" width="24.000000" height="24.000000" transform="translate(12.000000 12.000000)" fill="white" fill-opacity="0"/>
		</clipPath>
	</defs>
	<rect id="big icon" width="48.000000" height="48.000000" fill="#FFFFFF" fill-opacity="0"/>
	<circle id="Ellipse 9" cx="24.000000" cy="24.000000" r="24.000000" fill="#C22037" fill-opacity="1.000000"/>
	<rect id="Iocn/thumbs-up" width="24.000000" height="24.000000" transform="translate(12.000000 12.000000)" fill="#FFFFFF" fill-opacity="0"/>
	<g clip-path="url(#clip197_9675)">
		<path id="Vector (Stroke)" d="M22.08 13.59C22.24 13.23 22.6 13 23 13C24.06 13 25.07 13.42 25.82 14.17C26.57 14.92 27 15.93 27 17L27 20L31.65 20C32.08 19.99 32.51 20.08 32.91 20.26C33.3 20.44 33.66 20.7 33.94 21.03C34.23 21.35 34.44 21.74 34.56 22.16C34.68 22.58 34.71 23.02 34.64 23.45L33.26 32.45C33.16 33.16 32.79 33.81 32.24 34.28C31.69 34.75 30.99 35 30.27 35L16 35C15.2 35 14.44 34.68 13.87 34.12C13.31 33.55 13 32.79 13 32L13 25C13 24.2 13.31 23.44 13.87 22.87C14.44 22.31 15.2 22 16 22L18.35 22L22.08 13.59ZM20 23.21L23.6 15.09C23.9 15.19 24.18 15.35 24.41 15.58C24.78 15.96 25 16.46 25 17L25 21C25 21.55 25.44 22 26 22L31.66 22L31.67 22C31.81 21.99 31.96 22.02 32.09 22.08C32.22 22.14 32.34 22.23 32.43 22.34C32.53 22.45 32.6 22.58 32.64 22.72C32.68 22.86 32.69 23 32.67 23.14L31.29 32.15C31.25 32.38 31.13 32.6 30.95 32.76C30.76 32.91 30.53 33 30.29 33L20 33L20 23.21ZM18 33L18 24L16 24C15.73 24 15.48 24.1 15.29 24.29C15.1 24.48 15 24.73 15 25L15 32C15 32.26 15.1 32.51 15.29 32.7C15.48 32.89 15.73 33 16 33L18 33Z" fill="#FFFFFF" fill-opacity="1.000000" fill-rule="evenodd"/>
	</g>
</svg>
