<svg width="24.000000" height="24.000000" viewBox="0 0 24 24" fill="none" xmlns="http://www.w3.org/2000/svg" xmlns:xlink="http://www.w3.org/1999/xlink">
	<desc>
			Created with Pixso.
	</desc>
	<defs>
		<clipPath id="clip1152_33346">
			<rect id="Icon/arrow-right" width="24.000000" height="24.000000" transform="translate(24.000000 24.000000) rotate(180.000000)" fill="white" fill-opacity="0"/>
		</clipPath>
	</defs>
	<rect id="Icon/arrow-right" width="24.000000" height="24.000000" transform="translate(24.000000 24.000000) rotate(180.000000)" fill="#FFFFFF" fill-opacity="0"/>
	<g clip-path="url(#clip1152_33346)">
		<path id="Vector 1 (Stroke)" d="M6.91 12.79L7.99 13.87C8.38 14.26 8.38 14.9 7.99 15.29C7.6 15.68 6.97 15.68 6.58 15.3L3.01 11.81C3 11.8 3 11.78 3.01 11.77L6.58 8.28C6.97 7.89 7.6 7.89 7.99 8.28C8.38 8.68 8.38 9.31 7.99 9.71L6.91 10.79L19 10.79C19.55 10.79 20 11.24 20 11.79C20 12.34 19.55 12.79 19 12.79L6.91 12.79Z" fill="#252525" fill-opacity="1.000000" fill-rule="evenodd"/>
	</g>
</svg>
