<svg width="24.000000" height="24.234375" viewBox="0 0 24 24.2344" fill="none" xmlns="http://www.w3.org/2000/svg" xmlns:xlink="http://www.w3.org/1999/xlink">
	<desc>
			Created with Pixso.
	</desc>
	<defs>
		<clipPath id="clip402_9537">
			<rect id="Icon/whatsapp" width="14.000000" height="14.136585" transform="translate(5.000000 5.048828)" fill="white" fill-opacity="0"/>
		</clipPath>
		<clipPath id="clip628_59">
			<rect id="Icon/instagram" width="24.000000" height="24.234146" fill="white" fill-opacity="0"/>
		</clipPath>
	</defs>
	<rect id="Icon/instagram" width="24.000000" height="24.234146" fill="#6AAE34" fill-opacity="0"/>
	<g clip-path="url(#clip628_59)">
		<path id="Ellipse 1" d="M24 12.11C24 18.8 18.62 24.23 12 24.23C5.37 24.23 0 18.8 0 12.11C0 5.42 5.37 0 12 0C18.62 0 24 5.42 24 12.11Z" fill="#6AAE34" fill-opacity="1.000000" fill-rule="nonzero"/>
		<rect id="Icon/whatsapp" width="14.000000" height="14.136585" transform="translate(5.000000 5.048828)" fill="#FFFFFF" fill-opacity="0"/>
		<g clip-path="url(#clip402_9537)">
			<path id="Vector" d="M16.9 7.1C16.25 6.44 15.49 5.93 14.65 5.57C13.81 5.22 12.9 5.04 11.99 5.04C8.17 5.04 5.05 8.19 5.05 12.05C5.05 13.28 5.37 14.49 5.98 15.55L5 19.18L8.67 18.21C9.69 18.77 10.83 19.06 11.99 19.06L11.99 19.06C15.82 19.06 18.93 15.92 18.93 12.05C18.93 11.13 18.75 10.22 18.4 9.37C18.05 8.52 17.54 7.75 16.89 7.1L16.9 7.1ZM11.99 17.87C10.96 17.87 9.94 17.59 9.05 17.06L8.84 16.93L6.66 17.51L7.24 15.36L7.11 15.14C6.53 14.21 6.22 13.14 6.23 12.04C6.23 8.84 8.81 6.23 11.99 6.23C12.75 6.22 13.5 6.37 14.2 6.67C14.9 6.96 15.54 7.39 16.07 7.93C16.61 8.47 17.03 9.11 17.32 9.82C17.61 10.53 17.76 11.28 17.76 12.05C17.75 15.26 15.17 17.87 11.99 17.87ZM15.15 13.51C14.98 13.43 14.13 13 13.97 12.94C13.81 12.89 13.69 12.86 13.58 13.03C13.46 13.21 13.13 13.6 13.03 13.72C12.93 13.83 12.83 13.85 12.65 13.76C12.48 13.67 11.92 13.49 11.26 12.89C10.75 12.43 10.4 11.85 10.3 11.68C10.2 11.5 10.29 11.41 10.37 11.32C10.45 11.24 10.55 11.12 10.63 11.02C10.72 10.91 10.75 10.84 10.81 10.72C10.86 10.61 10.84 10.51 10.79 10.42C10.75 10.33 10.4 9.47 10.26 9.12C10.12 8.78 9.97 8.82 9.87 8.82C9.77 8.81 9.65 8.81 9.54 8.81C9.45 8.81 9.36 8.83 9.28 8.87C9.2 8.91 9.13 8.96 9.07 9.03C8.91 9.21 8.47 9.63 8.47 10.49C8.47 11.35 9.09 12.18 9.18 12.3C9.26 12.42 10.4 14.19 12.14 14.95C12.55 15.13 12.87 15.23 13.12 15.31C13.54 15.45 13.92 15.43 14.21 15.39C14.55 15.33 15.24 14.96 15.39 14.55C15.53 14.14 15.53 13.79 15.49 13.72C15.44 13.64 15.33 13.6 15.15 13.51Z" fill="#FFFFFF" fill-opacity="1.000000" fill-rule="nonzero"/>
		</g>
	</g>
</svg>
