<svg width="112.000000" height="45.000000" viewBox="0 0 112 45" fill="none" xmlns="http://www.w3.org/2000/svg" xmlns:xlink="http://www.w3.org/1999/xlink">
	<desc>
			Created with Pixso.
	</desc>
	<defs/>
	<rect id="FORMEN" width="112.000000" height="45.000000" fill="#FFFFFF" fill-opacity="0"/>
	<path id="FORMEN" d="M21.08 27.41Q22.98 28.28 25.29 28.28Q27.63 28.28 29.54 27.39Q29.77 27.28 29.99 27.16Q31.25 26.48 32.18 25.5Q32.8 24.84 33.28 24.05Q33.61 23.5 33.85 22.91Q34.48 21.38 34.48 19.59Q34.48 17.83 33.87 16.32Q33.62 15.71 33.28 15.15Q32.8 14.34 32.16 13.68Q31.24 12.71 29.99 12.04Q29.75 11.91 29.51 11.8Q27.61 10.91 25.29 10.91Q23 10.91 21.11 11.77Q20.84 11.9 20.57 12.04Q19.3 12.72 18.36 13.72Q17.75 14.36 17.28 15.15Q16.97 15.67 16.74 16.24Q16.1 17.79 16.1 19.59Q16.1 21.42 16.75 22.99Q16.98 23.53 17.28 24.05Q17.75 24.82 18.35 25.46Q19.29 26.47 20.57 27.16Q20.82 27.29 21.08 27.41ZM5.88 18.75L5.88 14.31L14.68 14.31L14.68 11.2L1.99 11.2L1.99 28L5.88 28L5.88 21.88L13.65 21.88L13.65 18.75L5.88 18.75ZM44.88 23.31L48.12 28L52.29 28L48.52 22.59Q49.87 22.01 50.72 21Q50.91 20.77 51.08 20.52Q51.17 20.38 51.25 20.23Q51.98 18.97 51.98 17.29Q51.98 15.61 51.26 14.34Q51.18 14.19 51.09 14.06Q50.92 13.79 50.72 13.56Q49.89 12.54 48.56 11.94Q46.92 11.2 44.68 11.2L37.41 11.2L37.41 28L41.3 28L41.3 23.31L44.88 23.31ZM70.31 17.92L70.34 28L73.99 28L73.94 11.2L70.75 11.2L64.56 21.64L58.27 11.2L55.05 11.2L55.05 28L58.7 28L58.7 18.13L63.62 26.22L65.37 26.22L70.31 17.92ZM90.98 28L90.98 24.88L81.83 24.88L81.83 20.99L89.64 20.99L89.64 17.96L81.83 17.96L81.83 14.31L90.67 14.31L90.67 11.2L77.97 11.2L77.97 28L90.98 28ZM109.49 28L109.49 11.2L105.64 11.2L105.64 21.4L97.29 11.2L94.08 11.2L94.08 28L97.91 28L97.91 17.79L106.29 28L109.49 28ZM27.38 24.58Q26.42 24.97 25.29 24.97Q24.14 24.97 23.16 24.56Q22.88 24.44 22.6 24.29Q22.05 23.97 21.61 23.54Q21.09 23.04 20.72 22.38Q20.65 22.27 20.6 22.15Q20.03 21.01 20.03 19.59Q20.03 18.2 20.58 17.07Q20.65 16.94 20.72 16.81Q21.1 16.13 21.64 15.61Q22.07 15.21 22.6 14.91Q22.88 14.75 23.16 14.63Q24.14 14.22 25.29 14.22Q26.42 14.22 27.38 14.61Q27.69 14.74 27.98 14.91Q28.51 15.21 28.94 15.61Q29.48 16.13 29.86 16.81Q29.94 16.94 30 17.07Q30.55 18.2 30.55 19.59Q30.55 21.01 29.98 22.15Q29.93 22.27 29.86 22.38Q29.49 23.04 28.98 23.54Q28.53 23.97 27.98 24.29Q27.69 24.45 27.38 24.58ZM47.55 15.57Q48.04 16.26 48.04 17.29Q48.04 18.28 47.58 18.96Q47.39 19.23 47.13 19.45Q46.22 20.22 44.47 20.22L41.3 20.22L41.3 14.36L44.47 14.36Q46.22 14.36 47.13 15.12Q47.37 15.32 47.55 15.57Z" fill="#C22037" fill-opacity="1.000000" fill-rule="evenodd"/>
	<path id="for men’s world" d="M3.23 33.5Q3.45 33.31 3.84 33.31Q4.04 33.31 4.22 33.36Q4.41 33.43 4.58 33.55L4.87 32.82Q4.67 32.68 4.39 32.6Q4.12 32.51 3.8 32.51Q3.07 32.51 2.62 32.87Q2.56 32.92 2.5 32.98Q2.42 33.06 2.35 33.15Q2.04 33.58 2.04 34.23L2.04 34.69L1.14 34.69L1.14 35.49L2.04 35.49L2.04 40L3 40L3 35.49L4.53 35.49L4.53 34.69L2.98 34.69L2.98 34.24Q2.98 33.73 3.23 33.5ZM57.89 32.58Q57.76 32.51 57.59 32.51Q57.41 32.51 57.27 32.59Q57.18 32.63 57.11 32.71Q57.06 32.76 57.02 32.83Q56.93 32.99 56.93 33.2Q56.93 33.36 56.99 33.49Q57.01 33.54 57.04 33.58Q57.09 33.66 57.16 33.71Q57.24 33.78 57.35 33.82L56.97 35.31L57.6 35.31L58.09 33.91Q58.19 33.64 58.22 33.49Q58.23 33.41 58.24 33.32Q58.24 33.26 58.24 33.2Q58.24 33.01 58.17 32.86Q58.13 32.78 58.06 32.71Q57.98 32.63 57.89 32.58ZM100.54 32.58L99.58 32.58L99.58 40L100.54 40L100.54 32.58ZM109.57 40L109.57 32.58L108.61 32.58L108.61 35.5Q108.44 35.28 108.23 35.11Q108.03 34.96 107.8 34.86Q107.78 34.85 107.75 34.84Q107.29 34.65 106.76 34.65Q106.08 34.65 105.52 34.91Q105.45 34.94 105.37 34.99Q105.09 35.15 104.86 35.37Q104.6 35.61 104.42 35.93Q104.41 35.94 104.41 35.95Q104.08 36.56 104.08 37.35Q104.08 38.11 104.39 38.71Q104.41 38.74 104.42 38.76Q104.61 39.09 104.87 39.35Q105.1 39.56 105.37 39.72Q105.45 39.76 105.52 39.79Q106.08 40.06 106.76 40.06Q107.3 40.06 107.76 39.86Q107.8 39.84 107.84 39.83Q108.08 39.71 108.28 39.55Q108.48 39.38 108.65 39.16L108.65 40L109.57 40ZM8.58 39.8Q9.14 40.06 9.83 40.06Q10.51 40.06 11.07 39.79Q11.16 39.75 11.24 39.71Q11.57 39.52 11.83 39.25Q12.05 39.03 12.22 38.74Q12.28 38.63 12.33 38.52Q12.58 37.99 12.58 37.35Q12.58 36.69 12.32 36.15Q12.28 36.05 12.22 35.95Q12.05 35.65 11.81 35.42Q11.56 35.17 11.24 34.99Q11.17 34.95 11.1 34.92Q10.53 34.65 9.83 34.65Q9.13 34.65 8.56 34.91Q8.48 34.95 8.41 34.99Q8.07 35.17 7.81 35.43Q7.59 35.66 7.42 35.95Q7.37 36.04 7.32 36.14Q7.06 36.68 7.06 37.35Q7.06 38 7.31 38.54Q7.36 38.64 7.42 38.74Q7.58 39.02 7.79 39.24Q8.06 39.51 8.41 39.71Q8.49 39.76 8.58 39.8ZM17.27 35.25Q17.13 35.4 17.03 35.59L17.03 34.69L16.11 34.69L16.11 40L17.07 40L17.07 37.36Q17.07 36.53 17.48 36.06Q17.49 36.05 17.51 36.03Q17.6 35.93 17.71 35.86Q18.11 35.56 18.74 35.56Q18.87 35.56 18.95 35.58L18.95 34.65Q18.25 34.65 17.76 34.89Q17.47 35.03 17.27 35.25ZM35.28 35.03Q34.74 34.65 33.92 34.65Q33.26 34.65 32.72 34.91Q32.31 35.11 32.03 35.43Q31.95 35.52 31.89 35.62Q31.75 35.37 31.55 35.18Q31.37 35.01 31.14 34.89Q30.66 34.65 30.04 34.65Q29.44 34.65 28.97 34.86Q28.69 34.99 28.47 35.19Q28.33 35.32 28.22 35.49L28.22 34.69L27.3 34.69L27.3 40L28.26 40L28.26 37.27Q28.26 36.43 28.67 35.98Q28.68 35.97 28.68 35.96Q28.8 35.84 28.93 35.75Q29.31 35.51 29.84 35.51Q30.39 35.51 30.73 35.77Q30.8 35.83 30.86 35.9Q31.21 36.28 31.21 37.06L31.21 40L32.18 40L32.18 37.27Q32.18 36.43 32.59 35.98Q32.6 35.97 32.61 35.96Q32.72 35.84 32.86 35.75Q33.23 35.51 33.77 35.51Q34.31 35.51 34.64 35.77Q34.71 35.83 34.78 35.9Q35.14 36.28 35.14 37.06L35.14 40L36.09 40L36.09 36.95Q36.09 35.84 35.54 35.26Q35.52 35.24 35.51 35.23Q35.4 35.12 35.28 35.03ZM44.87 37.67Q44.89 37.49 44.89 37.38Q44.89 36.58 44.56 35.97Q44.55 35.96 44.55 35.95Q44.35 35.59 44.07 35.33Q43.87 35.13 43.62 34.99Q43.54 34.94 43.45 34.9Q42.92 34.65 42.27 34.65Q41.63 34.65 41.11 34.88Q41 34.93 40.9 34.99Q40.65 35.13 40.44 35.33Q40.15 35.59 39.95 35.95Q39.89 36.06 39.84 36.18Q39.6 36.71 39.6 37.35Q39.6 37.99 39.84 38.52Q39.9 38.63 39.96 38.75Q40.1 39 40.3 39.2Q40.58 39.51 40.96 39.71Q41.61 40.06 42.45 40.06Q43.12 40.06 43.65 39.84Q44.03 39.68 44.33 39.42Q44.44 39.31 44.54 39.19L44.01 38.57Q43.81 38.8 43.55 38.95Q43.09 39.22 42.49 39.22Q41.85 39.22 41.38 38.93Q41.28 38.87 41.18 38.79Q40.95 38.61 40.81 38.38Q40.62 38.07 40.56 37.67L44.87 37.67ZM52.62 35.04Q52.07 34.65 51.25 34.65Q50.62 34.65 50.12 34.87Q49.74 35.03 49.48 35.32Q49.4 35.4 49.34 35.5L49.34 34.69L48.42 34.69L48.42 40L49.38 40L49.38 37.27Q49.38 36.47 49.77 36.02Q49.8 35.99 49.82 35.96Q49.91 35.87 50.01 35.8Q50.43 35.51 51.05 35.51Q51.65 35.51 52.01 35.8Q52.07 35.84 52.11 35.9Q52.49 36.28 52.49 37.06L52.49 40L53.44 40L53.44 36.95Q53.44 35.88 52.91 35.3Q52.88 35.26 52.85 35.23Q52.74 35.12 52.62 35.04ZM61.98 39.9Q62.56 40.06 63.17 40.06Q64.24 40.06 64.85 39.63Q65.19 39.4 65.34 39.07Q65.46 38.81 65.46 38.49Q65.46 37.97 65.21 37.67Q65.2 37.66 65.18 37.65Q65.06 37.51 64.91 37.41Q64.73 37.29 64.51 37.22Q64.11 37.09 63.47 36.98Q63 36.89 62.73 36.83Q62.47 36.76 62.29 36.61Q62.22 36.55 62.18 36.48Q62.1 36.36 62.1 36.2Q62.1 36.07 62.15 35.97Q62.22 35.79 62.42 35.67Q62.74 35.47 63.35 35.47Q64.14 35.47 64.74 35.8Q64.81 35.84 64.89 35.89L65.3 35.12Q64.95 34.9 64.42 34.78Q63.89 34.65 63.36 34.65Q62.35 34.65 61.75 35.08Q61.44 35.31 61.29 35.62Q61.16 35.9 61.16 36.24Q61.16 36.77 61.42 37.07Q61.43 37.09 61.45 37.1Q61.59 37.26 61.77 37.37Q61.94 37.48 62.14 37.55Q62.54 37.68 63.18 37.78Q63.66 37.85 63.91 37.92Q64.17 37.99 64.33 38.12Q64.4 38.18 64.44 38.24Q64.5 38.35 64.5 38.51Q64.5 38.68 64.43 38.82Q64.19 39.23 63.25 39.23Q63.13 39.23 63.02 39.22Q62.62 39.19 62.23 39.08Q61.74 38.93 61.38 38.67L60.98 39.44Q61.33 39.7 61.92 39.88Q61.95 39.89 61.98 39.9ZM85.82 39.8Q86.38 40.06 87.07 40.06Q87.75 40.06 88.31 39.79Q88.4 39.75 88.48 39.71Q88.81 39.52 89.07 39.25Q89.29 39.03 89.46 38.74Q89.52 38.63 89.57 38.52Q89.82 37.99 89.82 37.35Q89.82 36.69 89.56 36.15Q89.52 36.05 89.46 35.95Q89.29 35.65 89.05 35.42Q88.8 35.17 88.48 34.99Q88.41 34.95 88.34 34.92Q87.77 34.65 87.07 34.65Q86.37 34.65 85.8 34.91Q85.72 34.95 85.65 34.99Q85.31 35.17 85.05 35.43Q84.83 35.66 84.66 35.95Q84.61 36.04 84.56 36.14Q84.3 36.68 84.3 37.35Q84.3 38 84.55 38.54Q84.6 38.64 84.66 38.74Q84.82 39.02 85.03 39.24Q85.3 39.51 85.65 39.71Q85.73 39.76 85.82 39.8ZM94.51 35.25Q94.37 35.4 94.27 35.59L94.27 34.69L93.35 34.69L93.35 40L94.31 40L94.31 37.36Q94.31 36.53 94.72 36.06Q94.73 36.05 94.75 36.03Q94.84 35.93 94.95 35.86Q95.35 35.56 95.98 35.56Q96.11 35.56 96.19 35.58L96.19 34.65Q95.49 34.65 95 34.89Q94.71 35.03 94.51 35.25ZM79.8 40L81.78 34.69L80.91 34.69L79.33 38.94L77.76 34.69L76.95 34.69L75.35 38.92L73.81 34.69L72.91 34.69L74.87 40L75.79 40L77.34 35.97L78.88 40L79.8 40ZM41.43 35.65Q41.79 35.45 42.27 35.45Q42.72 35.45 43.08 35.64Q43.26 35.74 43.42 35.88Q43.59 36.04 43.71 36.22Q43.91 36.55 43.97 36.98L40.56 36.98Q40.62 36.51 40.85 36.17Q40.96 36.01 41.11 35.87Q41.26 35.74 41.43 35.65ZM10.57 39.07Q10.23 39.22 9.83 39.22Q9.41 39.22 9.07 39.06Q8.99 39.03 8.91 38.98Q8.76 38.89 8.63 38.78Q8.42 38.59 8.27 38.32Q8.26 38.31 8.26 38.3Q8.03 37.88 8.03 37.35Q8.03 36.8 8.26 36.38Q8.27 36.38 8.27 36.37Q8.42 36.09 8.65 35.9Q8.77 35.8 8.91 35.72Q8.98 35.68 9.04 35.65Q9.4 35.49 9.83 35.49Q10.24 35.49 10.59 35.64Q10.67 35.67 10.74 35.72Q10.89 35.8 11.02 35.92Q11.23 36.11 11.37 36.37Q11.61 36.79 11.61 37.35Q11.61 37.89 11.38 38.31Q11.38 38.31 11.37 38.32Q11.24 38.57 11.04 38.76Q10.9 38.89 10.74 38.98Q10.66 39.03 10.57 39.07ZM87.81 39.07Q87.47 39.22 87.07 39.22Q86.65 39.22 86.31 39.06Q86.23 39.03 86.15 38.98Q86 38.89 85.87 38.78Q85.66 38.59 85.51 38.32Q85.5 38.31 85.5 38.3Q85.27 37.88 85.27 37.35Q85.27 36.8 85.5 36.38Q85.51 36.38 85.51 36.37Q85.66 36.09 85.89 35.9Q86.01 35.8 86.15 35.72Q86.22 35.68 86.28 35.65Q86.64 35.49 87.07 35.49Q87.48 35.49 87.83 35.64Q87.91 35.67 87.98 35.72Q88.13 35.8 88.26 35.92Q88.47 36.11 88.61 36.37Q88.85 36.79 88.85 37.35Q88.85 37.89 88.62 38.31Q88.62 38.31 88.61 38.32Q88.48 38.57 88.28 38.76Q88.14 38.89 87.98 38.98Q87.9 39.03 87.81 39.07ZM107.49 39.1Q107.18 39.22 106.84 39.22Q106.42 39.22 106.08 39.06Q106 39.03 105.92 38.98Q105.77 38.89 105.64 38.78Q105.43 38.59 105.28 38.32Q105.27 38.31 105.27 38.3Q105.04 37.88 105.04 37.35Q105.04 36.8 105.27 36.38Q105.28 36.38 105.28 36.37Q105.43 36.09 105.66 35.9Q105.78 35.8 105.92 35.72Q105.99 35.68 106.05 35.65Q106.41 35.49 106.84 35.49Q107.2 35.49 107.51 35.61Q107.63 35.65 107.74 35.72Q107.91 35.81 108.05 35.94Q108.25 36.12 108.38 36.37Q108.62 36.79 108.62 37.35Q108.62 37.89 108.39 38.31Q108.39 38.31 108.38 38.32Q108.25 38.56 108.07 38.74Q107.92 38.88 107.74 38.98Q107.62 39.05 107.49 39.1Z" fill="#C22037" fill-opacity="1.000000" fill-rule="evenodd"/>
</svg>
